<svg xmlns="http://www.w3.org/2000/svg" width="360" height="105.73782253967933" viewBox="0 0 360 85.73782253967933" class="css-1j8o68f"><defs id="SvgjsDefs1751"></defs><g id="SvgjsG1752" featurekey="PG4fjM-0" transform="matrix(1.1113580381111898,0,0,1.1113580381111898,-3.7901754209542435,-12.206175264601686)" fill="#47abff"><g xmlns="http://www.w3.org/2000/svg" style="display: none;"><path d="M89.03,58.75l-9.45-6.89c0.01-0.04,0.03-0.08,0.03-0.13v-4.35c0-1.26-1.1-2.29-2.46-2.29   c-1.36,0-2.46,1.03-2.46,2.29v0.91l-6.67-4.86c0.03-0.06,0.04-0.13,0.04-0.2v-3.83c0-1.26-1.1-2.29-2.46-2.29   c-1.36,0-2.46,1.03-2.46,2.29v0.47l-8.44-6.15c-0.15-0.11-0.35-0.13-0.52-0.04c-0.17,0.09-0.27,0.26-0.27,0.45v13.14   c0,0.28,0.22,0.5,0.5,0.5s0.5-0.22,0.5-0.5V35.12l33.53,24.44c0.41,0.3,0.65,0.74,0.65,1.22v2.26c0,0.23-0.16,0.37-0.25,0.43   c-0.16,0.1-0.42,0.16-0.69,0.04l-29.5-13.96c-0.06-0.03-0.13-0.05-0.2-0.05l-4.01-0.09c-0.01,0-0.01,0-0.02,0   c-0.01,0-0.02-0.01-0.02-0.01c-0.24,0.03-0.5,0.22-0.5,0.5c-0.02,4.93-0.04,8.18-0.05,10.39c-0.01,1.54-0.02,2.58-0.02,3.33   c0,1.11-0.36,11.23-0.69,15.27c-0.01,0.16,0.05,0.31,0.16,0.41l8.54,7.66c0.33,0.3,0.52,0.72,0.52,1.17l-0.02,1.89l-9.02-1.97   c-0.23-0.05-0.47,0.07-0.56,0.29l-1.87,4.21V76.18c0-0.28-0.22-0.5-0.5-0.5s-0.5,0.22-0.5,0.5v18.73c0,0.24,0.17,0.44,0.4,0.49   c0.03,0.01,0.07,0.01,0.1,0.01c0.19,0,0.38-0.11,0.46-0.3l2.66-5.99l8.62,1.88c0.3,0.07,0.61-0.01,0.85-0.2   c0.24-0.19,0.38-0.48,0.38-0.79v-1.88c0-0.73-0.31-1.42-0.85-1.91l-8.36-7.49c0.31-4.05,0.67-13.81,0.67-15.1   c0-0.76,0.01-1.79,0.02-3.33c0.01-2.13,0.03-5.24,0.05-9.88l3.43,0.08l29.41,13.91c0.24,0.11,0.49,0.17,0.74,0.17   c0.32,0,0.63-0.09,0.91-0.27c0.45-0.29,0.72-0.76,0.72-1.28v-2.26C90.09,59.98,89.7,59.24,89.03,58.75z M75.69,48.66v-1.28   c0-0.71,0.66-1.29,1.46-1.29s1.46,0.58,1.46,1.29v3.77l-3.02-2.2C75.65,48.87,75.69,48.77,75.69,48.66z M64.15,39.41   c0-0.71,0.66-1.29,1.46-1.29s1.46,0.58,1.46,1.29v3.33l-2.92-2.13V39.41z M48.01,88.35c-0.01-0.02-0.02-0.03-0.03-0.04   c-0.02-0.03-0.03-0.05-0.05-0.08c-0.02-0.03-0.05-0.05-0.07-0.07c-0.02-0.02-0.05-0.03-0.07-0.04c-0.03-0.02-0.06-0.03-0.1-0.04   c-0.03-0.01-0.05-0.01-0.08-0.01c-0.04,0-0.07,0-0.11,0c-0.02,0-0.03,0-0.05,0l-9.04,1.95v-1.88c0-0.44,0.19-0.87,0.52-1.17   l8.54-7.65c0.12-0.1,0.18-0.26,0.17-0.41c-0.31-3.85-0.69-14.09-0.69-15.27c0-0.76-0.01-1.81-0.02-3.36   c-0.01-2.21-0.04-5.45-0.05-10.37c0,0,0,0,0,0s0,0,0,0c-0.02-2.97-0.03-9.38-0.03-12.69c0-0.28-0.22-0.5-0.5-0.5s-0.5,0.22-0.5,0.5   c0,3.14,0.01,9.06,0.03,12.2l-3.55,0.08c-0.07,0-0.14,0.02-0.2,0.05l-29.5,13.96c-0.26,0.13-0.53,0.06-0.69-0.04   c-0.1-0.06-0.26-0.2-0.26-0.43v-2.26c0-0.47,0.24-0.92,0.65-1.22l34.32-25.02c0.13-0.09,0.21-0.24,0.21-0.4V16.62   c0.06-2.6,0.85-10.02,3.53-10.02s3.47,7.42,3.53,10.01v13.82c0,0.28,0.22,0.5,0.5,0.5s0.5-0.22,0.5-0.5V16.6   C54.89,15.47,54.53,5.6,50.38,5.6c-4.15,0-4.51,9.87-4.53,11.01v17.28l-8.23,6v-0.47c0-1.26-1.1-2.29-2.46-2.29   s-2.46,1.03-2.46,2.29v3.83c0,0.07,0.02,0.14,0.04,0.2l-6.67,4.86v-0.91c0-1.26-1.1-2.29-2.46-2.29s-2.46,1.03-2.46,2.29v4.35   c0,0.05,0.01,0.09,0.03,0.13l-9.45,6.89c-0.67,0.49-1.06,1.23-1.06,2.03v2.26c0,0.51,0.27,0.99,0.72,1.28   c0.28,0.18,0.59,0.27,0.91,0.27c0.25,0,0.5-0.06,0.74-0.17L42.45,50.5l3.43-0.08c0.02,4.62,0.04,7.73,0.05,9.86   c0.01,1.55,0.02,2.59,0.02,3.35c0,1.3,0.36,11.05,0.67,15.11l-8.36,7.49c-0.54,0.49-0.85,1.18-0.85,1.91v1.88   c0,0.31,0.14,0.6,0.38,0.79c0.18,0.15,0.41,0.23,0.64,0.22c0.07,0,0.15-0.01,0.22-0.02l8.62-1.88l0.95,2.14   c0.08,0.19,0.27,0.3,0.46,0.3c0.07,0,0.14-0.01,0.2-0.04c0.25-0.11,0.37-0.41,0.25-0.66L48.01,88.35z M33.7,39.41   c0-0.71,0.65-1.29,1.46-1.29s1.46,0.58,1.46,1.29v1.2l-2.92,2.13V39.41z M22.16,47.38c0-0.71,0.65-1.29,1.46-1.29   s1.46,0.58,1.46,1.29v1.28c0,0.11,0.04,0.21,0.1,0.29l-3.02,2.2V47.38z" style="display: inline;"></path></g><g xmlns="http://www.w3.org/2000/svg" style="display: none;"><path d="M36.03,53.88c0,5.67,6.18,12.27,14.14,12.27c7.96,0,14.14-6.6,14.14-12.27c0-6.42-2.37-10.4-14.14-10.4   C38.4,43.48,36.03,47.46,36.03,53.88z M63.31,53.88c0,5.1-5.86,11.27-13.14,11.27c-7.28,0-13.14-6.17-13.14-11.27   c0-4.95,1-9.4,13.14-9.4S63.31,48.92,63.31,53.88z M82.01,18.59C72.67,9.26,59.74,4.5,46.52,5.55C24.62,7.27,6.89,25.1,5.28,47.01   c-0.16,2.18-0.17,4.38-0.02,6.54c0.02,0.28,0.27,0.5,0.53,0.46c0.28-0.02,0.48-0.26,0.46-0.53c-0.15-2.11-0.14-4.26,0.02-6.4   C7.85,25.66,25.19,8.23,46.6,6.54c12.93-1.02,25.58,3.63,34.7,12.75S95.07,41.07,94.05,54c-0.2,2.55-0.63,5.06-1.26,7.49   c-0.79-2.58-3.04-6.57-7.88-11.47c0.46,0.04,0.96-0.09,1.44-0.39c0.69-0.42,1.19-1.08,1.29-1.71c0.01-0.04,0.01-0.07,0-0.11   c-1.35-19.62-17.81-34.99-37.47-34.99c-18.52,0-34.5,13.82-37.16,32.14c-0.04,0.27,0.15,0.53,0.42,0.57   c0.27,0.04,0.53-0.15,0.57-0.42c2.6-17.84,18.15-31.29,36.18-31.29c19.12,0,35.12,14.93,36.47,34c-0.08,0.32-0.4,0.71-0.81,0.96   c-0.37,0.23-0.75,0.3-1.03,0.21c-0.82-0.27-2.66-1.66-3.29-2.16c0,0,0,0-0.01-0.01c0,0,0,0,0,0c-0.16-0.14-11.67-10.07-31.33-10.07   c-19.71,0-31.22,9.97-31.33,10.07C8.75,55.67,6.7,62.32,7.28,64.16c6.01,18.79,23.37,31.29,42.91,31.29c1.09,0,2.18-0.04,3.28-0.12   c3.45-0.25,6.86-0.9,10.15-1.94c0.65-0.21,1.11-0.75,1.2-1.42c0.09-0.69-0.21-1.35-0.79-1.74c-1.23-0.8-2.72-2.12-3.72-4.14   c0.21,0.05,0.43,0.09,0.69,0.09c0.36,0,0.78-0.06,1.27-0.18c0.8-0.27,1.52-0.52,2.25-0.82l0.53-0.22   c7.45-3.22,13.78-8.9,17.82-16.02c0.61-1.17,0.6-2.51-0.01-3.77c-0.86-1.77-2.81-3.14-5.08-3.56c-3.88-0.73-10.51,1.58-14.87,6.7   c-4.12,4.85-5.28,13.08-4.36,15.79c0,0,0,0,0,0c0,0.01,0.01,0.03,0.01,0.04c0,0,0,0.01,0,0.02c0,0,0,0,0,0   c0.85,3.61,3.14,5.76,4.92,6.92c0.26,0.17,0.39,0.46,0.35,0.76c-0.04,0.29-0.23,0.52-0.51,0.61c-3.22,1.01-6.55,1.65-9.92,1.89   c-6.28,0.45-12.39-0.43-18.02-2.43c1.86-0.88,5.32-3.1,6.4-7.81l0,0c0.92-2.7-0.23-10.94-4.36-15.79   c-4.35-5.12-10.98-7.43-14.87-6.7c-2.27,0.43-4.22,1.79-5.08,3.56c-0.62,1.27-0.62,2.61,0,3.79c4.03,7.1,10.36,12.78,17.82,16   l0.52,0.22c0,0,0,0,0,0c0.73,0.3,1.48,0.56,2.28,0.83c0.47,0.12,0.88,0.18,1.24,0.18c0.25,0,0.47-0.04,0.67-0.09   c-1.82,3.66-5.3,5.04-5.99,5.28C22.01,86.66,12.38,76.78,8.24,63.85c-0.43-1.33,1.45-7.67,11.26-16.28   c0.11-0.1,11.34-9.82,30.67-9.82c19.05,0,30.25,9.46,30.67,9.82c0,0,0,0,0,0c9.81,8.61,11.69,14.94,11.26,16.28   c-2.93,9.15-8.85,17.17-17.04,22.83c-1.73,1.19-3.56,2.27-5.44,3.2c-0.25,0.12-0.35,0.42-0.23,0.67c0.09,0.18,0.26,0.28,0.45,0.28   c0.08,0,0.15-0.02,0.22-0.05c1.92-0.95,3.79-2.05,5.56-3.27c8.37-5.78,14.42-13.99,17.42-23.34c0,0,0,0,0,0c0,0,0-0.01,0-0.01   c1.04-3.24,1.71-6.61,1.99-10.07C96.09,40.85,91.34,27.92,82.01,18.59z M63.67,68.94c3.63-4.27,8.88-6.49,12.54-6.49   c0.49,0,0.95,0.04,1.38,0.12c1.97,0.37,3.64,1.53,4.37,3.02c0.47,0.97,0.48,2,0.03,2.86c-3.93,6.91-10.08,12.44-17.34,15.57   l-0.52,0.22c-0.7,0.29-1.41,0.53-2.15,0.79c-1.77,0.46-2.1-0.17-2.48-1.24C58.76,81.73,59.58,73.76,63.67,68.94z M38.39,85.05   c-0.75-0.26-1.49-0.51-2.19-0.8l-0.52-0.22c-7.26-3.13-13.41-8.66-17.33-15.56c-0.46-0.88-0.45-1.9,0.03-2.88   c0.73-1.49,2.4-2.65,4.37-3.02c3.61-0.68,9.8,1.52,13.92,6.37c4.09,4.81,4.91,12.78,4.16,14.86C40.45,84.87,40.12,85.5,38.39,85.05   z" style="display: inline;"></path></g><g xmlns="http://www.w3.org/2000/svg" style="display: none;"><path d="M87.38,91.23c-1.48,2.57-4.14,4.1-7.11,4.1H20.5c-2.97,0-5.63-1.53-7.11-4.1c-1.48-2.57-1.49-5.64,0-8.21   l23.35-37.87c0.88-1.42,1.34-3.06,1.34-4.73V12.17l-1.75-2.11c-0.69-0.83-0.83-1.95-0.37-2.93c0.46-0.98,1.42-1.58,2.49-1.58h1.06   c1.77,0,3.22,1.44,3.22,3.22v9.05h5.95c0.28,0,0.5,0.22,0.5,0.5s-0.22,0.5-0.5,0.5h-5.95v10.13h5.95c0.28,0,0.5,0.22,0.5,0.5   s-0.22,0.5-0.5,0.5h-5.95v10.13h5.95c0.28,0,0.5,0.22,0.5,0.5s-0.22,0.5-0.5,0.5h-6.45c-0.28,0-0.5-0.22-0.5-0.5V8.77   c0-1.22-1-2.22-2.22-2.22h-1.06c-0.7,0-1.29,0.38-1.59,1.01c-0.3,0.63-0.21,1.33,0.24,1.87l1.86,2.25c0.07,0.09,0.12,0.2,0.12,0.32   v28.43c0,1.86-0.52,3.67-1.49,5.25L14.24,83.53c-1.29,2.25-1.29,4.94,0.01,7.2s3.64,3.6,6.25,3.6h59.77c2.61,0,4.94-1.35,6.25-3.6   c1.3-2.26,1.3-4.95,0-7.21L63.17,45.68c-0.97-1.58-1.49-3.4-1.49-5.25V11.99c0-0.12,0.04-0.23,0.12-0.32l1.86-2.25   c0.45-0.54,0.54-1.24,0.24-1.87c-0.3-0.63-0.89-1.01-1.59-1.01h-1.07c-1.22,0-2.22,1-2.22,2.22v33.35c0,1.67,0.46,3.31,1.34,4.73   L83.91,85c1.11,1.92,0.37,3.59,0,4.23c-0.36,0.63-1.45,2.11-3.65,2.11H20.5c-2.19,0-3.28-1.47-3.65-2.11   c-0.29-0.49-1.13-2.25-0.06-4.11l13.74-22.27c0.97-1.57,2.65-2.51,4.5-2.51h29.11c0.28,0,0.5,0.22,0.5,0.5s-0.22,0.5-0.5,0.5H35.02   c-1.5,0-2.86,0.76-3.65,2.04L17.65,85.63c-0.77,1.34-0.21,2.62,0.07,3.1c0.28,0.48,1.11,1.61,2.78,1.61h59.77   c1.68,0,2.5-1.12,2.78-1.61c0.28-0.48,0.84-1.76,0-3.21L59.52,47.37c-0.97-1.58-1.49-3.4-1.49-5.25V8.77   c0-1.77,1.44-3.22,3.22-3.22h1.07c1.08,0,2.04,0.61,2.49,1.58s0.32,2.1-0.37,2.93l-1.75,2.11v28.25c0,1.67,0.46,3.31,1.34,4.73   L87.37,83C88.86,85.59,88.86,88.66,87.38,91.23z" style="display: inline;"></path></g><g xmlns="http://www.w3.org/2000/svg" style="display: none;"><path d="M31.07,55.87h12.16c0.95,0,1.72-0.77,1.72-1.72V51.7c0-0.95-0.77-1.72-1.72-1.72H31.07   c-0.95,0-1.72,0.77-1.72,1.72v2.44C29.34,55.09,30.12,55.87,31.07,55.87z M30.34,51.7c0-0.4,0.32-0.72,0.72-0.72h12.16   c0.4,0,0.72,0.32,0.72,0.72v2.44c0,0.4-0.32,0.72-0.72,0.72H31.07c-0.4,0-0.72-0.32-0.72-0.72V51.7z M48.35,55.87h12.16   c0.95,0,1.72-0.77,1.72-1.72V51.7c0-0.95-0.77-1.72-1.72-1.72H48.35c-0.95,0-1.72,0.77-1.72,1.72v2.44   C46.63,55.09,47.4,55.87,48.35,55.87z M47.63,51.7c0-0.4,0.32-0.72,0.72-0.72h12.16c0.4,0,0.72,0.32,0.72,0.72v2.44   c0,0.4-0.32,0.72-0.72,0.72H48.35c-0.4,0-0.72-0.32-0.72-0.72V51.7z M65.64,55.87h12.16c0.95,0,1.72-0.77,1.72-1.72V51.7   c0-0.95-0.77-1.72-1.72-1.72H65.64c-0.95,0-1.72,0.77-1.72,1.72v2.44C63.91,55.09,64.69,55.87,65.64,55.87z M64.91,51.7   c0-0.4,0.32-0.72,0.72-0.72h12.16c0.4,0,0.72,0.32,0.72,0.72v2.44c0,0.4-0.32,0.72-0.72,0.72H65.64c-0.4,0-0.72-0.32-0.72-0.72   V51.7z M31.07,48.13h12.16c0.95,0,1.72-0.77,1.72-1.72v-2.44c0-0.95-0.77-1.72-1.72-1.72H31.07c-0.95,0-1.72,0.77-1.72,1.72v2.44   C29.34,47.36,30.12,48.13,31.07,48.13z M30.34,43.96c0-0.4,0.32-0.72,0.72-0.72h12.16c0.4,0,0.72,0.32,0.72,0.72v2.44   c0,0.4-0.32,0.72-0.72,0.72H31.07c-0.4,0-0.72-0.32-0.72-0.72V43.96z M48.35,48.13h12.16c0.95,0,1.72-0.77,1.72-1.72v-2.44   c0-0.95-0.77-1.72-1.72-1.72H48.35c-0.95,0-1.72,0.77-1.72,1.72v2.44C46.63,47.36,47.4,48.13,48.35,48.13z M47.63,43.96   c0-0.4,0.32-0.72,0.72-0.72h12.16c0.4,0,0.72,0.32,0.72,0.72v2.44c0,0.4-0.32,0.72-0.72,0.72H48.35c-0.4,0-0.72-0.32-0.72-0.72   V43.96z M65.64,48.13h12.16c0.95,0,1.72-0.77,1.72-1.72v-2.44c0-0.95-0.77-1.72-1.72-1.72H65.64c-0.95,0-1.72,0.77-1.72,1.72v2.44   C63.91,47.36,64.69,48.13,65.64,48.13z M64.91,43.96c0-0.4,0.32-0.72,0.72-0.72h12.16c0.4,0,0.72,0.32,0.72,0.72v2.44   c0,0.4-0.32,0.72-0.72,0.72H65.64c-0.4,0-0.72-0.32-0.72-0.72V43.96z M31.07,40.39h12.16c0.95,0,1.72-0.77,1.72-1.72v-2.44   c0-0.95-0.77-1.72-1.72-1.72H31.07c-0.95,0-1.72,0.77-1.72,1.72v2.44C29.34,39.62,30.12,40.39,31.07,40.39z M30.34,36.23   c0-0.4,0.32-0.72,0.72-0.72h12.16c0.4,0,0.72,0.32,0.72,0.72v2.44c0,0.4-0.32,0.72-0.72,0.72H31.07c-0.4,0-0.72-0.32-0.72-0.72   V36.23z M48.35,40.39h12.16c0.95,0,1.72-0.77,1.72-1.72v-2.44c0-0.95-0.77-1.72-1.72-1.72H48.35c-0.95,0-1.72,0.77-1.72,1.72v2.44   C46.63,39.62,47.4,40.39,48.35,40.39z M47.63,36.23c0-0.4,0.32-0.72,0.72-0.72h12.16c0.4,0,0.72,0.32,0.72,0.72v2.44   c0,0.4-0.32,0.72-0.72,0.72H48.35c-0.4,0-0.72-0.32-0.72-0.72V36.23z M65.64,40.39h12.16c0.95,0,1.72-0.77,1.72-1.72v-2.44   c0-0.95-0.77-1.72-1.72-1.72H65.64c-0.95,0-1.72,0.77-1.72,1.72v2.44C63.91,39.62,64.69,40.39,65.64,40.39z M64.91,36.23   c0-0.4,0.32-0.72,0.72-0.72h12.16c0.4,0,0.72,0.32,0.72,0.72v2.44c0,0.4-0.32,0.72-0.72,0.72H65.64c-0.4,0-0.72-0.32-0.72-0.72   V36.23z M97.01,67.68c0,0.28-0.22,0.5-0.5,0.5c-2.81,0-4.18,0.46-5.63,0.94c-1.46,0.49-2.97,0.99-5.94,0.99   c-2.97,0-4.48-0.5-5.94-0.99c-1.45-0.48-2.81-0.94-5.62-0.94s-4.18,0.46-5.62,0.94c-1.46,0.49-2.97,0.99-5.94,0.99   s-4.48-0.5-5.94-0.99c-1.45-0.48-2.81-0.94-5.62-0.94s-4.18,0.46-5.62,0.94c-1.46,0.49-2.97,0.99-5.94,0.99   c-2.97,0-4.48-0.5-5.94-0.99c-1.45-0.48-2.81-0.94-5.62-0.94c-2.81,0-4.18,0.46-5.62,0.94c-1.46,0.49-2.97,0.99-5.94,0.99   c-2.97,0-4.48-0.5-5.94-0.99C8.17,68.64,6.81,68.18,4,68.18c-0.28,0-0.5-0.22-0.5-0.5s0.22-0.5,0.5-0.5c2.97,0,4.48,0.5,5.94,0.99   c1.45,0.48,2.81,0.94,5.62,0.94s4.18-0.46,5.62-0.94c1.46-0.49,2.97-0.99,5.94-0.99c2.97,0,4.48,0.5,5.94,0.99   c1.45,0.48,2.81,0.94,5.62,0.94c2.81,0,4.18-0.46,5.62-0.94c1.46-0.49,2.97-0.99,5.94-0.99c2.97,0,4.48,0.5,5.94,0.99   c1.45,0.48,2.81,0.94,5.62,0.94s4.17-0.46,5.62-0.94c1.46-0.49,2.97-0.99,5.94-0.99c2.97,0,4.48,0.5,5.94,0.99   c1.45,0.48,2.81,0.94,5.62,0.94c2.81,0,4.18-0.46,5.63-0.94c0.44-0.15,0.89-0.29,1.38-0.43l1.65-8.18c0.04-0.19-0.04-0.33-0.1-0.39   C93.45,59.11,93.33,59,93.14,59h-3.63c-0.81,0-1.47-0.66-1.47-1.47v-9.16c0-0.26-0.21-0.47-0.47-0.47h-0.84   c-0.81,0-1.47-0.66-1.47-1.47v-7.06c0-0.26-0.21-0.47-0.47-0.47h-0.56c-0.26,0-0.47,0.21-0.47,0.47v18.16   c0,0.81-0.66,1.47-1.47,1.47H26.54c-0.81,0-1.47-0.66-1.47-1.47V42.52c0-0.21-0.17-0.38-0.38-0.38h-0.38   c-0.76,0-1.38-0.62-1.38-1.38v-4.12c0-0.21-0.17-0.38-0.38-0.38h-2.77c-0.21,0-0.38,0.17-0.38,0.38v4.12   c0,0.76-0.62,1.38-1.38,1.38c-0.21,0-0.38,0.17-0.38,0.38v10.17c0,0.37-0.15,0.72-0.41,0.98s-0.65,0.39-0.98,0.4l-0.67-0.01   c-0.09,0.03-0.2,0.04-0.27,0.11c-0.07,0.07-0.11,0.17-0.11,0.27v3.1c0,0.81-0.66,1.47-1.47,1.47H7.36c-0.15,0-0.28,0.07-0.37,0.18   c-0.09,0.12-0.12,0.26-0.08,0.4l1.32,5.08c0.07,0.27-0.09,0.54-0.36,0.61c-0.26,0.07-0.54-0.09-0.61-0.36l-1.32-5.08   c-0.12-0.44-0.02-0.9,0.26-1.27S6.9,58,7.36,58h1.26v-7.55c0-0.28,0.22-0.5,0.5-0.5s0.5,0.22,0.5,0.5V58h4.12   c0.26,0,0.47-0.21,0.47-0.47v-3.1c0-0.37,0.15-0.72,0.41-0.98c0.26-0.26,0.6-0.4,0.97-0.4c0,0,0.01,0,0.01,0l0.67,0.01   c0.12,0,0.2-0.04,0.27-0.11c0.07-0.07,0.11-0.17,0.11-0.27V42.52c0-0.76,0.62-1.38,1.38-1.38c0.21,0,0.38-0.17,0.38-0.38v-4.12   c0-0.75,0.6-1.36,1.34-1.38V30c0-0.28,0.22-0.5,0.5-0.5s0.5,0.22,0.5,0.5v5.26h0.99v-2.89c0-0.28,0.22-0.5,0.5-0.5   s0.5,0.22,0.5,0.5v2.91c0.67,0.09,1.19,0.66,1.19,1.36v4.12c0,0.21,0.17,0.38,0.38,0.38h0.38c0.76,0,1.38,0.62,1.38,1.38v15.01   c0,0.26,0.21,0.47,0.47,0.47h55.77c0.26,0,0.47-0.21,0.47-0.47V39.38c0-0.81,0.66-1.47,1.47-1.47h0.56c0.81,0,1.47,0.66,1.47,1.47   v7.06c0,0.26,0.21,0.47,0.47,0.47h0.84c0.81,0,1.47,0.66,1.47,1.47v9.16c0,0.26,0.21,0.47,0.47,0.47h3.63   c0.44,0,0.86,0.2,1.13,0.54c0.28,0.34,0.39,0.79,0.3,1.22l-1.56,7.73c0.92-0.18,2.03-0.3,3.49-0.3   C96.78,67.18,97.01,67.4,97.01,67.68z" style="display: inline;"></path></g><g xmlns="http://www.w3.org/2000/svg" style="display: none;"><path d="M95.06,69.82c-0.09-0.09-0.22-0.15-0.35-0.15l-68.32,0v-7.18c0-1.1-0.89-1.99-1.99-1.99h-5.66h-2.26   c-0.28,0-0.5,0.22-0.5,0.5s0.22,0.5,0.5,0.5h1.08l-2.93,3.06c-0.13,0.13-0.29,0.23-0.48,0.26l-5.36,1.09   c-0.89,0.18-1.53,0.97-1.53,1.88v3.39c-1.06,0.07-1.91,0.96-1.91,2.04c0,1.12,0.92,2.04,2.04,2.04h3.3   c0.14,0.98,0.68,1.86,1.52,2.4c0.56,0.36,1.2,0.54,1.85,0.54c0.35,0,0.69-0.05,1.03-0.16c0.97-0.3,1.76-1.03,2.15-1.98   c0.32-0.76,0.33-1.63,0.07-2.41h15.64c-0.12,0.36-0.19,0.73-0.19,1.11c0,1.9,1.54,3.44,3.44,3.44s3.44-1.54,3.44-3.44   c0-0.38-0.06-0.76-0.18-1.11h1.44c-0.12,0.36-0.19,0.73-0.19,1.11c0,1.9,1.54,3.44,3.44,3.44s3.44-1.54,3.44-3.44   c0-0.38-0.06-0.76-0.18-1.11h25.6c-0.12,0.36-0.19,0.73-0.19,1.11c0,1.9,1.54,3.44,3.44,3.44s3.44-1.54,3.44-3.44   c0-0.38-0.06-0.76-0.18-1.11h1.44c-0.12,0.36-0.19,0.73-0.19,1.11c0,1.9,1.54,3.44,3.44,3.44s3.44-1.54,3.44-3.44   c0-0.38-0.06-0.76-0.18-1.11l7.27,0c0.28,0,0.5-0.22,0.5-0.5v-2.97C95.2,70.04,95.15,69.91,95.06,69.82z M94.2,72.63l-7.57,0   c-0.18,0-0.35,0.1-0.44,0.26c-0.09,0.16-0.08,0.36,0.02,0.51c0.26,0.4,0.4,0.86,0.4,1.34c0,1.34-1.09,2.44-2.44,2.44   s-2.44-1.09-2.44-2.44c0-0.48,0.14-0.94,0.4-1.34c0.01-0.01,0.01-0.03,0.02-0.04c0.02-0.03,0.03-0.06,0.04-0.1   c0.01-0.03,0.02-0.06,0.02-0.09c0-0.02,0.01-0.03,0.01-0.05c0-0.02-0.01-0.03-0.01-0.05c0-0.03-0.01-0.06-0.02-0.09   c-0.01-0.03-0.02-0.06-0.04-0.09c-0.01-0.03-0.03-0.05-0.05-0.07c-0.02-0.03-0.05-0.05-0.07-0.07c-0.01-0.01-0.02-0.02-0.03-0.03   c-0.01-0.01-0.03-0.01-0.04-0.02c-0.03-0.02-0.06-0.03-0.09-0.04c-0.03-0.01-0.07-0.02-0.1-0.02c-0.01,0-0.03-0.01-0.04-0.01h-3.03   c-0.18,0-0.35,0.1-0.44,0.26c-0.09,0.16-0.08,0.36,0.02,0.51c0.26,0.4,0.4,0.86,0.4,1.34c0,1.34-1.09,2.44-2.44,2.44   s-2.44-1.09-2.44-2.44c0-0.48,0.14-0.94,0.4-1.34c0.01-0.01,0.01-0.03,0.02-0.04c0.02-0.03,0.03-0.06,0.04-0.09   c0.01-0.03,0.02-0.06,0.02-0.1c0-0.01,0.01-0.03,0.01-0.04c0-0.02-0.01-0.03-0.01-0.05c0-0.04-0.01-0.07-0.02-0.1   c-0.01-0.03-0.02-0.06-0.04-0.08c-0.02-0.03-0.03-0.05-0.05-0.08c-0.02-0.03-0.04-0.05-0.07-0.07c-0.01-0.01-0.02-0.03-0.04-0.04   c-0.01-0.01-0.03-0.01-0.04-0.02c-0.03-0.02-0.06-0.03-0.09-0.04c-0.03-0.01-0.07-0.02-0.1-0.02c-0.01,0-0.03-0.01-0.04-0.01H46.6   c-0.18,0-0.35,0.1-0.44,0.26c-0.09,0.16-0.08,0.36,0.02,0.51c0.26,0.4,0.4,0.86,0.4,1.34c0,1.34-1.09,2.44-2.44,2.44   s-2.44-1.09-2.44-2.44c0-0.48,0.14-0.94,0.4-1.34c0.01-0.01,0.01-0.03,0.02-0.04c0.02-0.03,0.03-0.06,0.04-0.09   c0.01-0.03,0.02-0.06,0.02-0.1c0-0.02,0.01-0.03,0.01-0.04c0-0.02-0.01-0.03-0.01-0.05c0-0.03-0.01-0.07-0.02-0.1   c-0.01-0.03-0.02-0.06-0.04-0.09c-0.01-0.03-0.03-0.05-0.05-0.08c-0.02-0.03-0.05-0.05-0.07-0.07c-0.01-0.01-0.02-0.02-0.03-0.03   c-0.01-0.01-0.03-0.01-0.04-0.02c-0.03-0.02-0.06-0.03-0.09-0.04c-0.03-0.01-0.07-0.02-0.1-0.02c-0.01,0-0.03-0.01-0.04-0.01h-3.03   c-0.18,0-0.35,0.1-0.44,0.26c-0.09,0.16-0.08,0.36,0.02,0.51c0.26,0.4,0.4,0.86,0.4,1.34c0,1.34-1.09,2.44-2.44,2.44   s-2.44-1.09-2.44-2.44c0-0.48,0.14-0.94,0.4-1.34c0.01-0.01,0.01-0.02,0.01-0.03c0.02-0.03,0.03-0.07,0.04-0.11   c0.01-0.03,0.01-0.05,0.02-0.08c0-0.02,0.01-0.03,0.01-0.05c0-0.02-0.01-0.04-0.01-0.06c0-0.03-0.01-0.06-0.02-0.08   c-0.01-0.04-0.02-0.07-0.04-0.1c-0.01-0.02-0.03-0.05-0.04-0.07c-0.02-0.03-0.05-0.06-0.08-0.08c-0.01-0.01-0.02-0.02-0.03-0.03   c-0.01-0.01-0.03-0.01-0.04-0.01c-0.03-0.02-0.06-0.03-0.1-0.04c-0.03-0.01-0.06-0.02-0.09-0.02c-0.02,0-0.03-0.01-0.05-0.01H16.64   l-0.12,0c-0.17,0.04-0.35,0.1-0.44,0.26c-0.09,0.16-0.08,0.36,0.02,0.51c0.44,0.67,0.52,1.54,0.22,2.26   c-0.29,0.69-0.83,1.19-1.53,1.41c-0.69,0.22-1.43,0.12-2.04-0.27c-0.7-0.45-1.12-1.22-1.13-2.05c0,0,0,0,0,0   c0-0.28-0.22-0.5-0.5-0.5H7.39c-0.57,0-1.04-0.47-1.04-1.04s0.47-1.04,1.04-1.04h0.37c0.28,0,0.5-0.22,0.5-0.5v-3.89   c0-0.43,0.31-0.81,0.73-0.9l5.36-1.09c0.38-0.08,0.73-0.27,1-0.55l3.59-3.75h5.45c0.55,0,0.99,0.45,0.99,0.99v7.68   c0,0.28,0.22,0.5,0.5,0.5l68.32,0V72.63z M29.95,62.42h62.37c0.28,0,0.5-0.22,0.5-0.5v-16.1c0-0.28-0.22-0.5-0.5-0.5H80.17   l-16-5.08c0.34-0.44,0.58-0.97,0.68-1.53c0.33-1.89-0.86-3.72-2.71-4.17c-0.21-0.05-0.35-0.22-0.35-0.42v-0.89   c1.23-0.24,2.17-1.32,2.17-2.62s-0.94-2.39-2.17-2.62V16.75c0-0.28-0.22-0.5-0.5-0.5s-0.5,0.22-0.5,0.5v11.26   c-1.23,0.24-2.17,1.32-2.17,2.62s0.94,2.39,2.17,2.62v0.89c0,0.66,0.46,1.23,1.12,1.39c1.34,0.32,2.2,1.65,1.96,3.02   c-0.09,0.52-0.35,1-0.72,1.37l-0.13-0.04c-0.75-0.24-1.55-0.25-2.31-0.02l-0.98,0.29c-0.03-0.03-0.07-0.04-0.11-0.07   c-0.59-0.5-0.93-1.23-0.93-2c0-0.28-0.22-0.5-0.5-0.5s-0.5,0.22-0.5,0.5c0,0.9,0.35,1.74,0.94,2.4l-16.5,4.86H29.95   c-0.28,0-0.5,0.22-0.5,0.5v16.1C29.45,62.2,29.67,62.42,29.95,62.42z M80.59,46.32h11.23v15.1H80.59V46.32z M59.62,30.63   c0-0.92,0.75-1.67,1.67-1.67c0.92,0,1.67,0.75,1.67,1.67s-0.75,1.67-1.67,1.67C60.37,32.3,59.62,31.55,59.62,30.63z M59.55,41.23   c0.53,0.29,1.13,0.45,1.74,0.45c0.21,0,0.43-0.02,0.64-0.06c0.51-0.09,0.99-0.3,1.41-0.59l13.52,4.29H45.65L59.55,41.23z    M42.68,46.32h36.91v15.1H42.68V46.32z M30.45,46.32h11.23v15.1H30.45V46.32z" style="display: inline;"></path></g><g xmlns="http://www.w3.org/2000/svg" style="display: none;"><path d="M40.08,71.95v10.15c0,7.27-5.92,13.19-13.19,13.19h-0.85c-7.27,0-13.19-5.92-13.19-13.19V78.1   c0-0.28,0.22-0.5,0.5-0.5s0.5,0.22,0.5,0.5v4.01c0,6.72,5.47,12.19,12.19,12.19h0.85c6.72,0,12.19-5.47,12.19-12.19V71.95   c0-5.15-3.61-9.91-8.77-11.58c-0.26-0.08-0.41-0.37-0.32-0.63s0.37-0.41,0.63-0.32C36.18,61.22,40.08,66.38,40.08,71.95z    M87.91,36.58c0,16.14-12.6,29.72-28.68,30.92c-0.01,0-0.02,0-0.04,0c0,0,0,0,0,0s0,0,0,0c0,0,0,0,0,0c0,0,0,0,0,0   c-1.53,0-2.78-1.25-2.78-2.79l0-8.32c-2.75-0.15-5.31-1.11-7.28-2.76c-2.18-1.82-3.38-4.25-3.38-6.85c0-0.28,0.22-0.5,0.5-0.5   s0.5,0.22,0.5,0.5c0,2.29,1.07,4.45,3.02,6.08c1.79,1.5,4.13,2.38,6.64,2.53l0-17.28c-2.74-0.15-5.31-1.11-7.28-2.76   c-2.18-1.82-3.38-4.25-3.38-6.85c0-2.59,1.2-5.02,3.38-6.85c1.97-1.65,4.53-2.61,7.27-2.76l0-5.76c0-0.28,0.22-0.5,0.5-0.5   s0.5,0.22,0.5,0.5l0,5.74c2.95,0.05,5.72,1.03,7.82,2.78c2.18,1.82,3.38,4.25,3.38,6.85c0,0.28-0.22,0.5-0.5,0.5s-0.5-0.22-0.5-0.5   c0-2.29-1.07-4.45-3.02-6.08c-1.92-1.61-4.46-2.5-7.18-2.55l0,17.28c2.95,0.05,5.72,1.03,7.81,2.78c2.18,1.82,3.38,4.25,3.38,6.85   c0,2.59-1.2,5.02-3.38,6.85c-2.1,1.75-4.86,2.73-7.81,2.78l0,8.29c0,0.98,0.79,1.78,1.77,1.79c15.55-1.17,27.73-14.3,27.73-29.92   c0-16.55-13.46-30.01-30.01-30.01c-16.55,0-30.01,13.46-30.01,30.01v22.68c0,0,0,0,0,0c0,0,0,0,0,0.01c0,0.28-0.22,0.5-0.5,0.5   c-6.8,0.04-12.54,5.62-12.54,12.19v1.47c0,0.44,0.36,0.79,0.79,0.79l21.71,0c0.28,0,0.5,0.22,0.5,0.5s-0.22,0.5-0.5,0.5l-21.71,0   c-0.99,0-1.79-0.8-1.79-1.79v-1.47c0-6.94,5.92-12.85,13.04-13.16V36.58c0-17.1,13.91-31.01,31.01-31.01S87.91,19.48,87.91,36.58z    M57.41,38.15l0,17.26c2.71-0.05,5.25-0.95,7.17-2.55c1.95-1.63,3.02-3.79,3.02-6.08c0-2.29-1.07-4.45-3.02-6.08   C62.66,39.1,60.12,38.2,57.41,38.15z M56.4,37.11l0-17.21c-2.51,0.15-4.84,1.03-6.63,2.53c-1.95,1.63-3.02,3.79-3.02,6.08   c0,2.29,1.07,4.45,3.02,6.08C51.56,36.08,53.9,36.96,56.4,37.11z" style="display: inline;"></path></g><g xmlns="http://www.w3.org/2000/svg" style="display: none;"><path d="M69.59,33.17l1.87-3.24l0.27,0.15c0.11,0.07,0.25,0.08,0.38,0.05c0.13-0.03,0.24-0.12,0.3-0.23l2.33-4.04   c0.07-0.11,0.08-0.25,0.05-0.38c-0.04-0.13-0.12-0.24-0.23-0.3l-5.59-3.23c-0.24-0.14-0.54-0.06-0.68,0.18l-2.33,4.04   c-0.07,0.11-0.08,0.25-0.05,0.38c0.04,0.13,0.12,0.24,0.23,0.3l0.27,0.15l-1.88,3.25c-4.05-1.88-8.53-3.01-13.29-3.18   c-0.26-0.02-0.51,0.21-0.52,0.48c-0.01,0.28,0.21,0.51,0.48,0.52c17.94,0.64,32,15.21,32,33.18c0,18.3-14.89,33.2-33.2,33.2   s-33.2-14.89-33.2-33.2c0-17.34,13.54-31.89,30.82-33.11c0.26-0.02,0.46-0.32,0.46-0.58v-6.12c0-0.94-0.77-1.71-1.71-1.71   c-0.39,0-0.71-0.32-0.71-0.71v-3.14c0-0.39,0.32-0.71,0.71-0.71h7.26c0.39,0,0.71,0.32,0.71,0.71v3.14c0,0.39-0.32,0.71-0.71,0.71   c-0.94,0-1.71,0.77-1.71,1.71v3.11c0,0.02,0.01,0.05,0.01,0.07c0,0.02,0,0.04,0,0.06c0,0.01,0.01,0.01,0.01,0.02   c0.03,0.09,0.08,0.17,0.16,0.23c0.01,0.01,0.03,0.02,0.04,0.03c0.08,0.05,0.17,0.09,0.27,0.09c0,0,0,0,0,0c0,0,0,0,0,0   c0.04,0,0.08-0.01,0.13-0.02c4.33-1.15,7.36-5.09,7.36-9.58c0-5.46-4.45-9.91-9.91-9.91c-5.46,0-9.91,4.45-9.91,9.91   c0,2.77,1.17,5.44,3.22,7.31c0.2,0.19,0.52,0.17,0.71-0.03c0.19-0.2,0.17-0.52-0.03-0.71c-1.84-1.68-2.89-4.08-2.89-6.57   c0-4.91,4-8.91,8.91-8.91c4.91,0,8.91,4,8.91,8.91c0,3.82-2.43,7.19-5.99,8.42v-2.43c0-0.39,0.32-0.71,0.71-0.71   c0.94,0,1.71-0.77,1.71-1.71v-3.14c0-0.94-0.77-1.71-1.71-1.71h-7.26c-0.94,0-1.71,0.77-1.71,1.71v3.14c0,0.94,0.77,1.71,1.71,1.71   c0.39,0,0.71,0.32,0.71,0.71v5.74c-4.12,0.35-8.02,1.44-11.58,3.12l-1.9-3.3l0.27-0.15c0.11-0.07,0.2-0.18,0.23-0.3   c0.03-0.13,0.02-0.26-0.05-0.38l-2.33-4.04c-0.07-0.11-0.18-0.2-0.3-0.23c-0.13-0.03-0.26-0.02-0.38,0.05l-5.59,3.23   c-0.24,0.14-0.32,0.44-0.18,0.68l2.33,4.04c0.14,0.24,0.44,0.32,0.68,0.18l0.27-0.15l1.91,3.31c-8.87,6.22-14.65,16.52-14.65,28.02   c0,18.86,15.34,34.2,34.2,34.2s34.2-15.34,34.2-34.2C84.2,49.61,78.46,39.34,69.59,33.17z M67.53,27.08   c0.07-0.11,0.08-0.25,0.05-0.38c-0.04-0.13-0.12-0.24-0.23-0.3l-0.27-0.15l1.83-3.18l4.72,2.73l-1.83,3.18l-0.27-0.15   c-0.11-0.07-0.25-0.08-0.38-0.05c-0.13,0.03-0.24,0.12-0.3,0.23l-2.09,3.62c-1.07-0.7-2.18-1.34-3.33-1.92L67.53,27.08z M29.16,29   c-0.07-0.11-0.18-0.2-0.3-0.23c-0.13-0.03-0.26-0.02-0.38,0.05l-0.27,0.15l-1.83-3.18l4.72-2.73l1.83,3.18l-0.27,0.15   c-0.24,0.14-0.32,0.44-0.18,0.68l2.12,3.67c-1.15,0.58-2.25,1.23-3.32,1.93L29.16,29z M35.22,35.65c-0.02,0.01-0.03,0.03-0.05,0.05   c-4.44,2.58-8.14,6.29-10.72,10.72c-0.02,0.02-0.04,0.03-0.05,0.05c-0.01,0.02-0.01,0.05-0.02,0.07c-2.5,4.34-3.94,9.36-3.94,14.72   c0,5.36,1.44,10.38,3.94,14.72c0.01,0.02,0.01,0.05,0.02,0.07c0.01,0.02,0.03,0.02,0.04,0.04c2.59,4.44,6.29,8.15,10.73,10.74   c0.02,0.01,0.03,0.03,0.05,0.05c0.02,0.01,0.03,0.01,0.05,0.01c4.34,2.51,9.37,3.95,14.74,3.95c5.36,0,10.39-1.44,14.74-3.95   c0.02-0.01,0.03,0,0.05-0.01c0.02-0.01,0.03-0.03,0.05-0.05c4.44-2.59,8.15-6.3,10.74-10.74c0.01-0.01,0.03-0.02,0.04-0.04   c0.01-0.02,0.01-0.04,0.02-0.07c2.5-4.34,3.94-9.36,3.94-14.72c0-5.36-1.44-10.38-3.94-14.72c-0.01-0.02-0.01-0.04-0.02-0.07   c-0.01-0.02-0.03-0.03-0.05-0.05c-2.59-4.44-6.29-8.14-10.73-10.73c-0.02-0.01-0.03-0.03-0.05-0.05c-0.02-0.01-0.04-0.01-0.07-0.02   c-4.34-2.5-9.36-3.94-14.72-3.94c-5.36,0-10.38,1.44-14.72,3.94C35.27,35.64,35.24,35.64,35.22,35.65z M74.49,46.55l-5.35,3.09   c-0.24,0.14-0.32,0.44-0.18,0.68c0.09,0.16,0.26,0.25,0.43,0.25c0.08,0,0.17-0.02,0.25-0.07l5.35-3.09   c2.21,3.97,3.49,8.51,3.58,13.35h-6.18c-0.28,0-0.5,0.22-0.5,0.5s0.22,0.5,0.5,0.5h6.18c-0.08,4.83-1.37,9.38-3.58,13.35   l-5.35-3.09c-0.24-0.14-0.54-0.06-0.68,0.18c-0.14,0.24-0.06,0.54,0.18,0.68l5.35,3.09c-2.41,4-5.77,7.36-9.77,9.77l-3.09-5.35   c-0.14-0.24-0.44-0.32-0.68-0.18c-0.24,0.14-0.32,0.44-0.18,0.68l3.09,5.35c-3.97,2.21-8.51,3.49-13.35,3.58v-6.17   c0-0.28-0.22-0.5-0.5-0.5s-0.5,0.22-0.5,0.5v6.17c-4.83-0.08-9.38-1.37-13.35-3.58l3.09-5.35c0.14-0.24,0.06-0.54-0.18-0.68   c-0.24-0.14-0.55-0.06-0.68,0.18l-3.09,5.35c-4-2.41-7.36-5.77-9.77-9.77l5.35-3.09c0.24-0.14,0.32-0.44,0.18-0.68   c-0.14-0.24-0.45-0.32-0.68-0.18l-5.35,3.09c-2.21-3.97-3.49-8.51-3.58-13.35h6.17c0.28,0,0.5-0.22,0.5-0.5s-0.22-0.5-0.5-0.5   h-6.17c0.08-4.83,1.37-9.38,3.58-13.35l5.35,3.09c0.08,0.05,0.16,0.07,0.25,0.07c0.17,0,0.34-0.09,0.43-0.25   c0.14-0.24,0.06-0.54-0.18-0.68l-5.35-3.09c2.41-4,5.77-7.36,9.77-9.77l3.09,5.35c0.09,0.16,0.26,0.25,0.43,0.25   c0.08,0,0.17-0.02,0.25-0.07c0.24-0.14,0.32-0.44,0.18-0.68l-3.09-5.35c3.97-2.21,8.51-3.49,13.35-3.58v6.18   c0,0.28,0.22,0.5,0.5,0.5s0.5-0.22,0.5-0.5V32.7c4.83,0.08,9.38,1.37,13.35,3.58l-3.09,5.35c-0.14,0.24-0.06,0.54,0.18,0.68   c0.08,0.05,0.17,0.07,0.25,0.07c0.17,0,0.34-0.09,0.43-0.25l3.09-5.35C68.72,39.19,72.08,42.55,74.49,46.55z M53.22,57.34   c-0.88-0.72-1.99-1.17-3.21-1.17c-2.81,0-5.09,2.28-5.09,5.09c0,2.81,2.28,5.09,5.09,5.09s5.09-2.28,5.09-5.09   c0-1.22-0.45-2.33-1.17-3.21l15.01-15.01c0.2-0.2,0.2-0.51,0-0.71s-0.51-0.2-0.71,0L53.22,57.34z M50.01,65.35   c-2.25,0-4.09-1.83-4.09-4.09s1.83-4.09,4.09-4.09c2.25,0,4.09,1.83,4.09,4.09S52.26,65.35,50.01,65.35z" style="display: inline;"></path></g><g xmlns="http://www.w3.org/2000/svg" style="display: none;"><path d="M38.35,6.03V26.5c0,1.41-0.51,2.78-1.44,3.84l-2.19,2.51c-0.77,0.88-1.2,2.01-1.2,3.18v54.87   c0,2.51-2.05,4.56-4.56,4.56s-4.56-2.05-4.56-4.56V36.03c0-1.17-0.42-2.3-1.2-3.18l-2.19-2.51c-0.93-1.06-1.44-2.43-1.44-3.84V6.03   c0-0.28,0.22-0.5,0.5-0.5s0.5,0.22,0.5,0.5V26.5c0,1.17,0.42,2.3,1.2,3.18l2.19,2.5c0.93,1.06,1.44,2.43,1.44,3.84v54.87   c0,1.96,1.6,3.56,3.56,3.56s3.56-1.6,3.56-3.56V36.03c0-1.41,0.51-2.78,1.44-3.84l2.19-2.51c0.77-0.88,1.2-2.01,1.2-3.18V6.03   c0-0.28,0.22-0.5,0.5-0.5S38.35,5.75,38.35,6.03z M33.41,22.13c0.28,0,0.5-0.22,0.5-0.5V6.03c0-0.28-0.22-0.5-0.5-0.5   s-0.5,0.22-0.5,0.5v15.6C32.91,21.9,33.13,22.13,33.41,22.13z M28.96,22.13c0.28,0,0.5-0.22,0.5-0.5V6.03c0-0.28-0.22-0.5-0.5-0.5   s-0.5,0.22-0.5,0.5v15.6C28.46,21.9,28.68,22.13,28.96,22.13z M24.51,22.13c0.28,0,0.5-0.22,0.5-0.5V6.03c0-0.28-0.22-0.5-0.5-0.5   s-0.5,0.22-0.5,0.5v15.6C24.01,21.9,24.24,22.13,24.51,22.13z M81.2,48.29v6.82v5.19v17.05v0.14v12.03c0,3.29-2.67,5.96-5.96,5.96   H55c-3.29,0-5.96-2.67-5.96-5.96v-6.25c0-0.28,0.22-0.5,0.5-0.5s0.5,0.22,0.5,0.5v6.25c0,2.74,2.23,4.96,4.96,4.96h20.24   c2.74,0,4.96-2.23,4.96-4.96V77.86H49.54c-0.28,0-0.5-0.22-0.5-0.5V55.11c0-0.28,0.22-0.5,0.5-0.5H80.2v-6.32   c0-5.12-1.2-9.37-7.33-15.98c-0.03-0.03-0.05-0.06-0.07-0.1c-1.66-1.51-2.64-3.67-2.71-5.95V11.4c0-0.25,0.19-0.47,0.44-0.5V6.78   c0-0.17-0.14-0.31-0.31-0.31H60.03c-0.17,0-0.31,0.14-0.31,0.31v4.12c0.25,0.03,0.44,0.24,0.44,0.5v14.85   c-0.07,2.3-1.06,4.46-2.72,5.97c-0.02,0.03-0.04,0.06-0.06,0.09c-6.13,6.61-7.33,10.86-7.33,15.98c0,0.28-0.22,0.5-0.5,0.5   s-0.5-0.22-0.5-0.5c0-5.21,1.26-9.81,7.53-16.58c0.03-0.06,0.06-0.11,0.11-0.15c1.51-1.33,2.42-3.27,2.48-5.32V11.89   c-0.25-0.03-0.44-0.24-0.44-0.5V6.78c0-0.72,0.59-1.31,1.31-1.31h10.18c0.72,0,1.31,0.59,1.31,1.31v4.62c0,0.25-0.19,0.47-0.44,0.5   v14.35c0.06,2.04,0.97,3.98,2.48,5.31c0.05,0.05,0.1,0.11,0.13,0.17C79.94,38.49,81.2,43.08,81.2,48.29z M80.2,76.86V60.3v-4.69   H50.04v21.24H80.2z" style="display: inline;"></path></g><g xmlns="http://www.w3.org/2000/svg"><path d="M56.85,66.3h-1.82V51.94h1.86c0.48,0,0.87,0.39,0.87,0.87v5.11c0,0.48-0.39,0.87-0.87,0.87h-0.3c-0.28,0-0.5,0.22-0.5,0.5   s0.22,0.5,0.5,0.5h0.3c1.03,0,1.87-0.84,1.87-1.87v-5.11c0-1.03-0.84-1.87-1.87-1.87h-2.36c-0.28,0-0.5,0.22-0.5,0.5v6.41H30.64   c-0.28,0-0.5,0.22-0.5,0.5s0.22,0.5,0.5,0.5h22.81l-4.38,5.17H33.33h-1.14l-4.96-5.86v-6.72c0-0.28-0.22-0.5-0.5-0.5h-2.36   c-1.03,0-1.87,0.84-1.87,1.87v5.11c0,1.03,0.84,1.87,1.87,1.87h0.3c0.28,0,0.5-0.22,0.5-0.5s-0.22-0.5-0.5-0.5h-0.3   c-0.48,0-0.87-0.39-0.87-0.87v-5.11c0-0.48,0.39-0.87,0.87-0.87h1.86V66.3h-1.82c-1.03,0-1.87,0.84-1.87,1.87v5.23v6.74   c0,0.58,0.27,1.09,0.69,1.44v4.68c0,1.03,0.84,1.87,1.87,1.87h1.06c0.54,0,1.03-0.24,1.37-0.61c0.34,0.37,0.83,0.61,1.37,0.61h1.06   c1.03,0,1.87-0.84,1.87-1.87v-4.24h17.62v4.24c0,1.03,0.84,1.87,1.87,1.87h1.06c0.54,0,1.02-0.23,1.36-0.59   c0.34,0.36,0.82,0.59,1.36,0.59h1.06c1.03,0,1.87-0.84,1.87-1.87v-4.67c0.42-0.34,0.69-0.86,0.69-1.44v-6.74v-5.23   C58.72,67.14,57.88,66.3,56.85,66.3z M49.3,65.02c0.07,0,0.14-0.02,0.2-0.04c0.02-0.01,0.03-0.02,0.05-0.03   c0.04-0.03,0.08-0.05,0.12-0.09c0-0.01,0.01-0.01,0.02-0.01l4.34-5.13v6.59h-3.35c-1.03,0-1.87,0.84-1.87,1.87l0,5.23   c0,0.48-0.39,0.87-0.87,0.87h-14.6c-0.48,0-0.87-0.39-0.87-0.87V65.9c0-0.48,0.39-0.87,0.87-0.87H49.3z M27.24,59.72l4.34,5.13   c0.04,0.05,0.09,0.08,0.14,0.11c-0.16,0.28-0.26,0.6-0.26,0.94v0.41h-4.22V59.72z M26.16,87.14H25.1c-0.48,0-0.87-0.39-0.87-0.87   v-4.24h0.19h2.61v4.24C27.03,86.75,26.64,87.14,26.16,87.14z M30.83,86.26c0,0.48-0.39,0.87-0.87,0.87H28.9   c-0.48,0-0.87-0.39-0.87-0.87v-4.24h2.8V86.26z M31.33,81.03h-3.3h-0.5h-3.11c-0.48,0-0.87-0.39-0.87-0.87v-5.1   c0.26,0.14,0.56,0.23,0.87,0.23h5.02c0.28,0,0.5-0.22,0.5-0.5s-0.22-0.5-0.5-0.5h-5.02c-0.48,0-0.87-0.39-0.87-0.87v-5.23   c0-0.48,0.39-0.87,0.87-0.87h7.04v6.11c0,1.03,0.84,1.87,1.87,1.87h14.6c1.03,0,1.87-0.84,1.87-1.87l0-5.23   c0-0.48,0.39-0.87,0.87-0.87h6.17c0.48,0,0.87,0.39,0.87,0.87v5.23c0,0.48-0.39,0.87-0.87,0.87h-5.22c-0.28,0-0.5,0.22-0.5,0.5   s0.22,0.5,0.5,0.5h5.22c0.32,0,0.61-0.09,0.87-0.23v5.1c0,0.48-0.39,0.87-0.87,0.87h-2.59h-0.52h-4.28H31.33z M52.38,87.14h-1.06   c-0.48,0-0.87-0.39-0.87-0.87v-4.24h2.78v4.24c0,0.03,0.01,0.05,0.01,0.07C53.2,86.78,52.84,87.14,52.38,87.14z M57.03,82.03v4.24   c0,0.48-0.39,0.87-0.87,0.87H55.1c-0.45,0-0.82-0.35-0.86-0.8c0-0.03,0.01-0.05,0.01-0.07v-4.24h2.59H57.03z M27.24,47.15v1.22   c0,0.48,0.39,0.87,0.87,0.87h25.04c0.48,0,0.87-0.39,0.87-0.87V46.8c0-0.48-0.39-0.87-0.87-0.87H28.11c-1.03,0-1.87-0.84-1.87-1.87   v-6.37c0-1.03,0.84-1.87,1.87-1.87h25.04c1.03,0,1.87,0.84,1.87,1.87v4.49c0,0.28-0.22,0.5-0.5,0.5s-0.5-0.22-0.5-0.5v-4.49   c0-0.48-0.39-0.87-0.87-0.87H28.11c-0.48,0-0.87,0.39-0.87,0.87v6.37c0,0.48,0.39,0.87,0.87,0.87h25.04c1.03,0,1.87,0.84,1.87,1.87   v1.56c0,1.03-0.84,1.87-1.87,1.87H28.11c-1.03,0-1.87-0.84-1.87-1.87v-1.22c0-0.28,0.22-0.5,0.5-0.5S27.24,46.87,27.24,47.15z    M27.48,69.08c-1.06,0-1.92,0.86-1.92,1.92s0.86,1.92,1.92,1.92s1.92-0.86,1.92-1.92S28.54,69.08,27.48,69.08z M27.48,71.92   c-0.51,0-0.92-0.42-0.92-0.92s0.42-0.92,0.92-0.92s0.92,0.42,0.92,0.92S27.99,71.92,27.48,71.92z M53.78,72.92   c1.06,0,1.92-0.86,1.92-1.92s-0.86-1.92-1.92-1.92s-1.92,0.86-1.92,1.92S52.72,72.92,53.78,72.92z M53.78,70.08   c0.51,0,0.92,0.42,0.92,0.92s-0.42,0.92-0.92,0.92s-0.92-0.42-0.92-0.92S53.27,70.08,53.78,70.08z M95.19,30.73v0.25   c0,0.28-0.22,0.5-0.5,0.5h-2.6l-2.6,3.08v4.22c0,0.28-0.22,0.5-0.5,0.5h-3.56l-3.41,4.04v8.48c0,0.12-0.04,0.23-0.12,0.32   l-1.4,1.66c-0.09,0.11-0.23,0.18-0.38,0.18h-2.86l-4.33,5.13v4.91l1.56,1.85c0.08,0.09,0.12,0.2,0.12,0.32v4.1   c0,0.12-0.04,0.23-0.12,0.32l-1.08,1.28c-0.09,0.11-0.23,0.18-0.38,0.18s-0.29-0.07-0.38-0.18l-3.05-3.62   c-0.08-0.09-0.12-0.2-0.12-0.32v-4.4h-2.97c-0.15,0-0.29-0.07-0.38-0.18l-1.11-1.32H59.7v0.71c0,0.28-0.22,0.5-0.5,0.5h-2.65   c-0.28,0-0.5-0.22-0.5-0.5s0.22-0.5,0.5-0.5h2.15v-0.71c0-0.28,0.22-0.5,0.5-0.5h6.05c0.15,0,0.29,0.07,0.38,0.18l1.11,1.32h3.24   c0.28,0,0.5,0.22,0.5,0.5v4.72l2.55,3.03l0.58-0.69v-3.73l-1.56-1.85c-0.08-0.09-0.12-0.2-0.12-0.32v-5.28   c0-0.12,0.04-0.23,0.12-0.32l4.6-5.45c0.09-0.11,0.23-0.18,0.38-0.18h2.86l1.13-1.34v-8.48c0-0.12,0.04-0.23,0.12-0.32l3.68-4.36   c0.09-0.11,0.23-0.18,0.38-0.18h3.29v-3.9c0-0.12,0.04-0.23,0.12-0.32l2.87-3.4c0.09-0.11,0.23-0.18,0.38-0.18h1.97l-0.98-1.16   c-0.08-0.09-0.12-0.2-0.12-0.32v-2.96l-0.5-0.6h-0.77l-1.18,1.4v1.14c0,0.12-0.04,0.23-0.12,0.32L87.89,31   c-0.09,0.11-0.23,0.18-0.38,0.18h-5.89l-2.63,3.12c-0.09,0.11-0.23,0.18-0.38,0.18H76.3v0.79c0,0.12-0.04,0.23-0.12,0.32l-0.76,0.9   c-0.09,0.11-0.23,0.18-0.38,0.18h-4.71c-0.28,0-0.5-0.22-0.5-0.5v-5.79l-3.63-4.31h-3.48c-0.15,0-0.29-0.06-0.38-0.18l-1.97-2.33   h-5.03c-0.15,0-0.29-0.06-0.38-0.18l-0.82-0.97h-2.28c-0.15,0-0.29-0.06-0.38-0.18l-0.46-0.55c-0.09,0.09-0.22,0.15-0.36,0.15   l-42.4,0l-2.05,2.44v19.42l10.87,12.89h3.89c0.28,0,0.5,0.22,0.5,0.5s-0.22,0.5-0.5,0.5h-4.12c-0.15,0-0.29-0.07-0.38-0.18   L5.33,44.19c-0.08-0.09-0.12-0.2-0.12-0.32V24.08c0-0.12,0.04-0.23,0.12-0.32l2.32-2.75c0.1-0.11,0.24-0.18,0.38-0.18l42.13,0   v-0.35c0-0.21,0.13-0.4,0.33-0.47c0.2-0.07,0.42-0.01,0.55,0.15l1.05,1.25h2.28c0.15,0,0.29,0.06,0.38,0.18l0.82,0.97h5.03   c0.15,0,0.29,0.06,0.38,0.18l1.97,2.33h3.48c0.15,0,0.29,0.06,0.38,0.18l3.9,4.62c0.08,0.09,0.12,0.2,0.12,0.32v5.47h3.98   l0.49-0.58v-1.1c0-0.28,0.22-0.5,0.5-0.5h2.58L81,30.36c0.09-0.11,0.23-0.18,0.38-0.18h5.89l2-2.38v-1.14   c0-0.12,0.04-0.23,0.12-0.32l1.45-1.72c0.09-0.11,0.23-0.18,0.38-0.18h1.24c0.15,0,0.29,0.06,0.38,0.18l0.77,0.91   c0.08,0.09,0.12,0.2,0.12,0.32v2.96l1.34,1.59C95.15,30.5,95.19,30.62,95.19,30.73z"></path></g><g xmlns="http://www.w3.org/2000/svg" style="display: none;"><path d="M86.45,89.78v5.45c0,0.28-0.22,0.5-0.5,0.5s-0.5-0.22-0.5-0.5v-5.45c0-1.27-1.04-2.31-2.31-2.31h-3.72H16.41   c-1.27,0-2.31,1.04-2.31,2.31v5.45c0,0.28-0.22,0.5-0.5,0.5s-0.5-0.22-0.5-0.5v-5.45c0-1.83,1.48-3.31,3.31-3.31h63.01   c1.27,0,2.31-1.04,2.31-2.31V71.01c0-1.27-1.04-2.31-2.31-2.31H20.13c-1.27,0-2.31,1.04-2.31,2.31v12.11c0,0.28-0.22,0.5-0.5,0.5   s-0.5-0.22-0.5-0.5V71.01c0-1.83,1.48-3.31,3.31-3.31h59.29c1.83,0,3.31,1.48,3.31,3.31v13.15c0,0.9-0.36,1.71-0.95,2.31h1.36   C84.96,86.47,86.45,87.96,86.45,89.78z M24.78,81.25v-7.8c0-0.28-0.22-0.5-0.5-0.5s-0.5,0.22-0.5,0.5v7.8c0,0.28,0.22,0.5,0.5,0.5   S24.78,81.52,24.78,81.25z M31.15,81.25v-7.8c0-0.28-0.22-0.5-0.5-0.5s-0.5,0.22-0.5,0.5v7.8c0,0.28,0.22,0.5,0.5,0.5   S31.15,81.52,31.15,81.25z M37.52,81.25v-7.8c0-0.28-0.22-0.5-0.5-0.5s-0.5,0.22-0.5,0.5v7.8c0,0.28,0.22,0.5,0.5,0.5   S37.52,81.52,37.52,81.25z M43.9,81.25v-7.8c0-0.28-0.22-0.5-0.5-0.5s-0.5,0.22-0.5,0.5v7.8c0,0.28,0.22,0.5,0.5,0.5   S43.9,81.52,43.9,81.25z M50.27,81.25v-7.8c0-0.28-0.22-0.5-0.5-0.5s-0.5,0.22-0.5,0.5v7.8c0,0.28,0.22,0.5,0.5,0.5   S50.27,81.52,50.27,81.25z M56.64,81.25v-7.8c0-0.28-0.22-0.5-0.5-0.5s-0.5,0.22-0.5,0.5v7.8c0,0.28,0.22,0.5,0.5,0.5   S56.64,81.52,56.64,81.25z M63.02,81.25v-7.8c0-0.28-0.22-0.5-0.5-0.5s-0.5,0.22-0.5,0.5v7.8c0,0.28,0.22,0.5,0.5,0.5   S63.02,81.52,63.02,81.25z M69.39,81.25v-7.8c0-0.28-0.22-0.5-0.5-0.5s-0.5,0.22-0.5,0.5v7.8c0,0.28,0.22,0.5,0.5,0.5   S69.39,81.52,69.39,81.25z M75.76,81.25v-7.8c0-0.28-0.22-0.5-0.5-0.5s-0.5,0.22-0.5,0.5v7.8c0,0.28,0.22,0.5,0.5,0.5   S75.76,81.52,75.76,81.25z M24.78,62.81v-2.69c0-0.28-0.22-0.5-0.5-0.5s-0.5,0.22-0.5,0.5v2.69c0,0.28,0.22,0.5,0.5,0.5   S24.78,63.08,24.78,62.81z M31.15,62.81v-2.69c0-0.28-0.22-0.5-0.5-0.5s-0.5,0.22-0.5,0.5v2.69c0,0.28,0.22,0.5,0.5,0.5   S31.15,63.08,31.15,62.81z M37.52,62.81v-2.69c0-0.28-0.22-0.5-0.5-0.5s-0.5,0.22-0.5,0.5v2.69c0,0.28,0.22,0.5,0.5,0.5   S37.52,63.08,37.52,62.81z M43.9,62.81v-2.69c0-0.28-0.22-0.5-0.5-0.5s-0.5,0.22-0.5,0.5v2.69c0,0.28,0.22,0.5,0.5,0.5   S43.9,63.08,43.9,62.81z M50.27,62.81v-2.69c0-0.28-0.22-0.5-0.5-0.5s-0.5,0.22-0.5,0.5v2.69c0,0.28,0.22,0.5,0.5,0.5   S50.27,63.08,50.27,62.81z M56.64,62.81v-2.69c0-0.28-0.22-0.5-0.5-0.5s-0.5,0.22-0.5,0.5v2.69c0,0.28,0.22,0.5,0.5,0.5   S56.64,63.08,56.64,62.81z M63.02,62.81v-2.69c0-0.28-0.22-0.5-0.5-0.5s-0.5,0.22-0.5,0.5v2.69c0,0.28,0.22,0.5,0.5,0.5   S63.02,63.08,63.02,62.81z M69.39,62.81v-2.69c0-0.28-0.22-0.5-0.5-0.5s-0.5,0.22-0.5,0.5v2.69c0,0.28,0.22,0.5,0.5,0.5   S69.39,63.08,69.39,62.81z M75.76,62.81v-2.69c0-0.28-0.22-0.5-0.5-0.5s-0.5,0.22-0.5,0.5v2.69c0,0.28,0.22,0.5,0.5,0.5   S75.76,63.08,75.76,62.81z M19.4,64.23v-6.12c0.82-15.8,15.44-26.27,24.61-29.25v-2.68c0-0.35,0.08-0.69,0.25-0.99l3.9-7.68   c0.29-0.41,0.68-0.67,1.12-0.78v-4.49V6.35V5.73c0-0.28,0.22-0.5,0.5-0.5s0.5,0.22,0.5,0.5v0.31c1.21,0.59,2.46,0.23,3.77-0.17   c1.48-0.44,3.16-0.95,4.82,0.05c0.15,0.09,0.24,0.25,0.24,0.43v5.89c0,0.18-0.1,0.35-0.25,0.44c-0.16,0.09-0.35,0.09-0.5-0.01   c-1.28-0.77-2.61-0.37-4.01,0.05c-0.85,0.25-1.76,0.53-2.7,0.53c-0.45,0-0.91-0.07-1.36-0.23v3.71c0.43,0.11,0.81,0.36,1.07,0.72   l3.9,7.76c0.15,0.28,0.24,0.62,0.24,0.98v2.66c8.12,2.62,21.06,11.43,23.88,25.19c0.05,0.27-0.12,0.54-0.39,0.59   c-0.27,0.05-0.54-0.12-0.59-0.39c-2.75-13.43-15.48-22-23.36-24.49c-0.05-0.02-0.1-0.02-0.11-0.03c-0.24-0.04-0.42-0.25-0.42-0.49   v-3.05c0-0.18-0.04-0.37-0.12-0.51l-3.86-7.7c-0.13-0.17-0.41-0.3-0.72-0.3c0,0,0,0,0,0c-0.31,0-0.59,0.14-0.77,0.37l-3.86,7.62   c-0.09,0.16-0.13,0.34-0.13,0.52v2.55h5.69c0.28,0,0.5,0.22,0.5,0.5s-0.22,0.5-0.5,0.5h-6.04c-0.01,0-0.03-0.01-0.04-0.01   l-0.09,0.03c-8.9,2.81-23.33,13-24.12,28.39l0,6.09c0,0.46,0.41,0.83,0.92,0.83h56.9c0.51,0,0.92-0.37,0.92-0.83v-5.45   c0-0.43-0.39-0.77-0.86-0.77H23.22c-0.28,0-0.5-0.22-0.5-0.5s0.22-0.5,0.5-0.5h55.07c1.03,0,1.86,0.8,1.86,1.77v5.45   c0,1.01-0.86,1.83-1.92,1.83h-56.9C20.26,66.06,19.4,65.24,19.4,64.23z M50.27,7.13v4.81c1.21,0.59,2.46,0.21,3.77-0.18   c1.25-0.38,2.65-0.8,4.06-0.31V6.65c-1.21-0.59-2.46-0.21-3.77,0.18C53.08,7.2,51.68,7.62,50.27,7.13z" style="display: inline;"></path></g><g xmlns="http://www.w3.org/2000/svg" style="display: none;"><path d="M38.98,35.31c0,1.81,1.47,3.28,3.28,3.28s3.28-1.47,3.28-3.28s-1.47-3.28-3.28-3.28S38.98,33.5,38.98,35.31z    M44.53,35.31c0,1.26-1.02,2.28-2.28,2.28s-2.28-1.02-2.28-2.28s1.02-2.28,2.28-2.28S44.53,34.06,44.53,35.31z M43.21,64.6v6.59   c0,11.29,9.1,21.19,19.46,21.19c5.4,0,10.41-2.05,14.1-5.76c3.67-3.7,5.71-8.68,5.9-14.42l-0.03-1.01   c0.04-11.39-3.1-20.34-9.32-26.58c-3.22-3.23-7.22-5.62-11.81-7.12c-0.01,0-0.01-0.01-0.02-0.01c-0.08-0.05-0.16-0.06-0.25-0.06   c-1.35-0.43-2.75-0.77-4.19-1.04c0,0,0,0,0,0c-0.09-0.06-0.2-0.07-0.3-0.06c-1.17-0.21-2.36-0.39-3.59-0.49   c-0.25-0.02-0.52,0.18-0.54,0.46s0.18,0.52,0.46,0.54c0.99,0.08,1.97,0.21,2.93,0.36c-2.22,3.83-4.45,8.31-4.93,13   c-0.03,0.27,0.17,0.52,0.45,0.55c0.02,0,0.03,0,0.05,0c0.25,0,0.47-0.19,0.5-0.45c0.47-4.62,2.75-9.09,4.97-12.89   c1.18,0.23,2.32,0.51,3.43,0.84c-2.41,4.04-4.62,8.3-5.04,12.39c-1.04,10.16-5.08,12.69-11.71,12.99c-0.01,0-0.01,0-0.02,0   c-0.01,0-0.03,0.01-0.04,0.01c-0.46,0.02-0.93,0.03-1.42,0.03c-7.51,0-12.07-2.13-13.18-13.02c-0.53-5.14-3.82-10.47-7.02-15.63   c-3.59-5.81-7.31-11.82-7.12-17.77c0.28-8.96,9.22-9.19,13.01-9.2l0,2.76c0,0.88,0.59,1.66,1.44,1.89c2.4,0.66,4.87,1.2,6.35,0   c0.81-0.66,1.18-1.77,1.09-3.28c-0.08-1.35-0.54-2.33-1.37-2.92c-1.04-0.74-2.58-0.81-4.72-0.22c-0.27,0.07-0.42,0.35-0.35,0.62   c0.07,0.27,0.35,0.42,0.62,0.35c1.8-0.5,3.1-0.47,3.87,0.07c0.56,0.4,0.88,1.13,0.95,2.16c0.07,1.17-0.17,2-0.72,2.44   c-1.21,0.98-3.87,0.25-5.46-0.19c-0.42-0.11-0.71-0.5-0.71-0.93l0-3.26c0-0.13-0.05-0.26-0.15-0.35s-0.22-0.15-0.35-0.15h-0.17   C24.8,6.97,14.26,6.96,13.94,17.16c-0.2,6.25,3.6,12.39,7.27,18.33c3.13,5.06,6.37,10.29,6.87,15.21   c1.18,11.55,6.52,13.92,14.18,13.92C42.58,64.62,42.9,64.61,43.21,64.6z M56.43,50.7c0.41-3.97,2.64-8.2,5.03-12.21   c4.33,1.46,8.11,3.75,11.15,6.81c6.03,6.05,9.07,14.76,9.03,25.89l0.03,1c-0.17,5.46-2.11,10.21-5.6,13.72   c-3.5,3.53-8.26,5.47-13.39,5.47c-9.84,0-18.46-9.43-18.46-20.19v-6.64C50.81,64.12,55.36,61.24,56.43,50.7z M19.32,17.33   c-0.14,4.63,3.07,9.83,6.47,15.34c3.37,5.45,6.84,11.07,7.59,17.04h14.83c0.28,0,0.5,0.22,0.5,0.5s-0.22,0.5-0.5,0.5H32.94   c-0.26,0-0.47-0.19-0.5-0.45c-0.6-5.91-4.11-11.58-7.5-17.06c-3.49-5.64-6.78-10.96-6.62-15.9c0.15-4.77,3.95-5.64,7.64-5.86   c0.28,0,0.51,0.19,0.53,0.47c0.02,0.28-0.19,0.51-0.47,0.53C21.3,12.72,19.42,14.09,19.32,17.33z M85.61,71.16   c0.04,6.87-2.36,13.08-6.76,17.51c-4.25,4.27-9.99,6.62-16.17,6.62c-11.93,0-22.39-11.27-22.39-24.11v-3.35   c0-0.28,0.22-0.5,0.5-0.5s0.5,0.22,0.5,0.5v3.35c0,12.31,9.99,23.11,21.39,23.11c5.92,0,11.41-2.25,15.46-6.33   c4.21-4.24,6.51-10.2,6.47-16.79l-0.05-1.29c-0.21-11.17-3.62-20.38-9.87-26.65c-6.09-6.12-14.62-9.4-24.68-9.52   c0.13,0.57,0.19,1.09,0.19,1.6c0,0.23-0.03,0.44-0.06,0.66l-0.02,0.17c0.02,0.06,0.02,0.13,0.01,0.2   c-0.51,3.94-3.89,6.91-7.87,6.91c-4.38,0-7.93-3.56-7.93-7.93s3.56-7.93,7.93-7.93c2.49,0,4.78,1.13,6.3,3.11   c0.17,0.22,0.13,0.53-0.09,0.7c-0.22,0.17-0.53,0.13-0.7-0.09c-1.32-1.73-3.33-2.72-5.5-2.72c-3.82,0-6.93,3.11-6.93,6.93   s3.11,6.93,6.93,6.93c3.46,0,6.4-2.57,6.87-5.99c-0.01-0.05-0.02-0.11-0.01-0.17l0.03-0.25c0.02-0.17,0.05-0.34,0.05-0.52   c0-0.53-0.08-1.07-0.24-1.72c-0.01-0.04-0.02-0.08-0.02-0.12v-0.26c0-0.28,0.22-0.5,0.5-0.5c3.06,0,5.97,0.29,8.73,0.85l0.56-0.9   c3.4-5.5,6.61-10.7,6.47-15.33c-0.12-3.66-2.45-4.95-8.93-4.95h-0.14c-0.25,0.06-0.52,0.14-0.82,0.22   c-1.25,0.34-2.77,0.76-4.14,0.76c-0.92,0-1.76-0.19-2.41-0.71c-0.82-0.66-1.18-1.77-1.09-3.28c0.09-1.41,0.59-2.43,1.48-3.03   c1.68-1.12,4.28-0.41,6.09,0.22c0.79,0.27,1.31,1.02,1.31,1.85v1.28c0,0.28-0.22,0.5-0.5,0.5s-0.5-0.22-0.5-0.5V8.4   c0-0.41-0.26-0.77-0.64-0.91c-0.93-0.32-3.75-1.31-5.21-0.33c-0.63,0.42-0.97,1.16-1.04,2.26c-0.07,1.17,0.17,2,0.72,2.44   c1.21,0.98,3.88,0.25,5.65-0.24c0.32-0.09,0.62-0.17,0.9-0.24c0.02,0,0.04,0,0.06,0c0.02,0,0.04-0.01,0.06-0.01h0.18   c4.74,0,9.79,0.46,9.96,5.92c0.15,4.94-3.14,10.26-6.62,15.89l-0.37,0.6c1.16,0.27,2.29,0.58,3.39,0.95   c3.55-5.74,7.16-11.66,6.98-17.54c-0.17-5.53-3.65-8.47-10.63-8.97c-0.28-0.02-0.48-0.26-0.46-0.53c0.02-0.28,0.26-0.49,0.54-0.46   c7.48,0.54,11.37,3.89,11.56,9.94c0.19,6.11-3.42,12.1-7.01,17.91c4.54,1.65,8.53,4.15,11.84,7.47   c6.44,6.46,9.95,15.91,10.16,27.33L85.61,71.16z" style="display: inline;"></path></g><g xmlns="http://www.w3.org/2000/svg" style="display: none;"><path d="M90.16,94.95c0,0.28-0.22,0.5-0.5,0.5h-3.02c-1.44,0-2.61-1.17-2.61-2.61V58.49c0-0.89-0.72-1.61-1.61-1.61   h-1.36c-0.28,0-0.5-0.22-0.5-0.5s0.22-0.5,0.5-0.5h1.36c1.44,0,2.61,1.17,2.61,2.61v34.35c0,0.89,0.72,1.61,1.61,1.61h3.02   C89.94,94.45,90.16,94.67,90.16,94.95z M81.56,94.95c0,0.28-0.22,0.5-0.5,0.5H10.8c-0.28,0-0.5-0.22-0.5-0.5s0.22-0.5,0.5-0.5   h53.81l0.22-5.08H16.48v2.34c0,0.28-0.22,0.5-0.5,0.5s-0.5-0.22-0.5-0.5V57.88c0-1.11,0.55-2.14,1.47-2.76l11.01-7.38   c0.37-0.25,0.85-0.27,1.24-0.06c0.39,0.21,0.64,0.62,0.64,1.06v6.31c0,0.11,0.07,0.16,0.11,0.18c0.04,0.02,0.12,0.05,0.21-0.01   l11.16-7.48c0.37-0.25,0.85-0.27,1.24-0.06c0.39,0.21,0.64,0.62,0.64,1.06v6.31c0,0.11,0.07,0.16,0.11,0.18   c0.04,0.02,0.12,0.05,0.21-0.01l11.17-7.48c0.37-0.25,0.85-0.27,1.24-0.06c0.39,0.21,0.64,0.62,0.64,1.06v6.22   c0,0.5,0.41,0.91,0.91,0.91l7.96,0c0.49,0,0.89-0.38,0.91-0.87l1.27-28.27c0.01-0.27,0.23-0.48,0.5-0.48h7.12   c0.27,0,0.49,0.21,0.5,0.48l2.99,67.71h2.34C81.33,94.45,81.56,94.67,81.56,94.95z M68.58,27.26l-0.11,2.42h6.38l-0.11-2.42H68.58z    M65.61,94.45h12.1L74.9,30.69h-6.47l-1.1,24.37c-0.05,1.02-0.88,1.82-1.91,1.82l-7.96,0c-1.05,0-1.91-0.86-1.91-1.91v-6.22   c0-0.11-0.07-0.16-0.11-0.18c-0.04-0.02-0.12-0.05-0.21,0.01l-11.17,7.48c-0.37,0.25-0.84,0.27-1.24,0.06   c-0.39-0.21-0.64-0.62-0.64-1.06v-6.31c0-0.11-0.07-0.16-0.11-0.18c-0.04-0.02-0.12-0.05-0.21,0.01l-11.16,7.48   c-0.37,0.25-0.84,0.27-1.24,0.06c-0.39-0.21-0.64-0.62-0.64-1.06v-6.31c0-0.11-0.07-0.16-0.11-0.18c-0.04-0.02-0.12-0.05-0.21,0.01   l-11.01,7.38c-0.64,0.43-1.03,1.15-1.03,1.92v30.49h48.39l1.19-27.54c0.01-0.28,0.24-0.48,0.52-0.48c0.28,0.01,0.49,0.25,0.48,0.52   L65.61,94.45z M28.05,63.9v6.81c0,0.28-0.22,0.5-0.5,0.5h-6.68c-0.28,0-0.5-0.22-0.5-0.5V63.9c0-0.28,0.22-0.5,0.5-0.5h6.68   C27.83,63.4,28.05,63.63,28.05,63.9z M27.05,64.4h-5.68v5.81h5.68V64.4z M41.41,63.9v6.81c0,0.28-0.22,0.5-0.5,0.5h-6.68   c-0.28,0-0.5-0.22-0.5-0.5V63.9c0-0.28,0.22-0.5,0.5-0.5h6.68C41.19,63.4,41.41,63.63,41.41,63.9z M40.41,64.4h-5.68v5.81h5.68   V64.4z M54.77,63.9v6.81c0,0.28-0.22,0.5-0.5,0.5h-6.68c-0.28,0-0.5-0.22-0.5-0.5V63.9c0-0.28,0.22-0.5,0.5-0.5h6.68   C54.54,63.4,54.77,63.63,54.77,63.9z M53.77,64.4h-5.68v5.81h5.68V64.4z M28.05,76.2v6.81c0,0.28-0.22,0.5-0.5,0.5h-6.68   c-0.28,0-0.5-0.22-0.5-0.5V76.2c0-0.28,0.22-0.5,0.5-0.5h6.68C27.83,75.7,28.05,75.92,28.05,76.2z M27.05,76.7h-5.68v5.81h5.68   V76.7z M41.41,76.2v6.81c0,0.28-0.22,0.5-0.5,0.5h-6.68c-0.28,0-0.5-0.22-0.5-0.5V76.2c0-0.28,0.22-0.5,0.5-0.5h6.68   C41.19,75.7,41.41,75.92,41.41,76.2z M40.41,76.7h-5.68v5.81h5.68V76.7z M54.77,76.2v6.81c0,0.28-0.22,0.5-0.5,0.5h-6.68   c-0.28,0-0.5-0.22-0.5-0.5V76.2c0-0.28,0.22-0.5,0.5-0.5h6.68C54.54,75.7,54.77,75.92,54.77,76.2z M53.77,76.7h-5.68v5.81h5.68   V76.7z M94.84,13.77c0,4.44-3.61,8.06-8.06,8.06c-2.17,0-4.22-0.88-5.73-2.44c-1.14,2.1-3.6,3.3-6.06,2.65   c-0.37,1.25-1.51,2.13-2.86,2.13c-1.65,0-3-1.34-3-3c0-1.29,0.83-2.41,2.01-2.82c-0.15-0.5-0.22-1.01-0.22-1.53   c0-2.98,2.42-5.4,5.4-5.4c0.92,0,1.81,0.24,2.61,0.69c0.77-3.7,4.02-6.4,7.85-6.4C91.23,5.72,94.84,9.33,94.84,13.77z M93.84,13.77   c0-3.89-3.17-7.06-7.06-7.06c-3.59,0-6.59,2.71-6.98,6.3c-0.02,0.18-0.13,0.34-0.3,0.41c-0.17,0.07-0.36,0.05-0.5-0.07   c-0.79-0.61-1.71-0.94-2.68-0.94c-2.42,0-4.4,1.97-4.4,4.4c0,0.58,0.11,1.15,0.34,1.69c0.06,0.14,0.05,0.31-0.03,0.44   c-0.08,0.13-0.21,0.23-0.37,0.25c-0.99,0.13-1.74,0.98-1.74,1.97c0,1.1,0.9,2,2,2c1.03,0,1.88-0.78,1.98-1.82   c0.01-0.16,0.1-0.3,0.23-0.38c0.13-0.08,0.3-0.1,0.44-0.04c2.42,0.91,4.86-0.4,5.66-2.61c0.06-0.17,0.21-0.29,0.39-0.32   c0.18-0.03,0.36,0.04,0.47,0.18c1.36,1.69,3.36,2.67,5.48,2.67C90.67,20.83,93.84,17.66,93.84,13.77z" style="display: inline;"></path></g><g xmlns="http://www.w3.org/2000/svg" style="display: none;"><path d="M95.36,78.03l-0.9-2.17l0,0l-8.11-21.6V32.73c0-1.19-0.46-2.31-1.31-3.16L84,28.52c-0.2-0.2-0.51-0.2-0.71,0   s-0.2,0.51,0,0.71l1.05,1.05c0.65,0.65,1.01,1.52,1.01,2.45v2.25c-0.02,0.01-0.04,0.02-0.05,0.04l-8.38,8.34h-0.6c0,0,0,0,0,0   s0,0,0,0h-8.03c-0.4,0-0.73-0.33-0.73-0.73v-1.98c0-0.4,0.33-0.73,0.73-0.73h9.33c0.28,0,0.5-0.22,0.5-0.5s-0.22-0.5-0.5-0.5h-0.8   v-4.31c0-0.92,0.36-1.79,1.01-2.45l2.97-2.97l1.57-1.57l0.99-0.99c0.83-0.83,1.29-1.94,1.29-3.11c0-1.17-0.46-2.28-1.29-3.11   c-0.83-0.83-1.94-1.29-3.11-1.29c-1.18,0-2.28,0.46-3.11,1.29c-0.8,0.8-1.25,1.85-1.29,2.98l-1.07,1.97   c-0.12,0.23-0.12,0.49,0.02,0.71c0.13,0.22,0.36,0.35,0.62,0.35l0.04,1.08c0,0.99,0.81,1.81,1.81,1.82l1.98,0.01l-2.12,2.12   c-0.12,0.12-0.21,0.25-0.31,0.37v-1.09c0-0.28-0.22-0.5-0.5-0.5H23.9c-0.28,0-0.5,0.22-0.5,0.5v1.09c-0.1-0.13-0.19-0.26-0.31-0.37   l-2.12-2.12l1.99-0.01c0.99-0.01,1.8-0.83,1.8-1.82v-1.08h0.04c0.26,0,0.49-0.13,0.62-0.35c0.13-0.22,0.14-0.49,0.01-0.71   l-1.07-1.97c-0.03-1.13-0.49-2.18-1.29-2.98c-0.83-0.83-1.94-1.29-3.11-1.29c-1.18,0-2.28,0.46-3.11,1.29s-1.29,1.94-1.29,3.11   c0,1.17,0.46,2.28,1.29,3.11l0.99,0.99l1.57,1.57l2.97,2.97c0.65,0.65,1.01,1.52,1.01,2.45v4.31h-0.8c-0.28,0-0.5,0.22-0.5,0.5   s0.22,0.5,0.5,0.5h1.27c0.01,0,0.01,0,0.02,0s0.01,0,0.02,0h8.02c0.4,0,0.73,0.33,0.73,0.73v1.98c0,0.4-0.33,0.73-0.73,0.73H23.9   c0,0,0,0,0,0s0,0,0,0h-0.6l-8.38-8.34c-0.02-0.02-0.04-0.02-0.05-0.04v-2.25c0-0.92,0.36-1.79,1.01-2.45l1.05-1.05   c0.2-0.2,0.2-0.51,0-0.71s-0.51-0.2-0.71,0l-1.05,1.05c-0.84,0.84-1.31,1.96-1.31,3.16v21.53L5.75,75.88l-0.89,2.16   c-0.09,0.22-0.09,0.46,0,0.69c0.09,0.22,0.26,0.39,0.48,0.49l5.54,2.3c0.06,0.03,0.13,0.04,0.19,0.04h3.51   c0.42,0,0.78-0.29,0.87-0.7c0.09-0.41-0.11-0.83-0.48-1l-2.36-1.19l-0.41-0.45l10.28-24.81c0.11-0.25-0.02-0.55-0.27-0.65   c-0.25-0.11-0.55,0.02-0.65,0.27L11.35,77.64l-4.5-1.86l7.98-21.25c0.02-0.06,0.03-0.12,0.03-0.18v-6.91h8.54v11.39V77.8h-4.85   V67.72c0-0.28-0.22-0.5-0.5-0.5s-0.5,0.22-0.5,0.5V78.3v2.35c0,0.49,0.4,0.9,0.9,0.9h9.51c0.42,0,0.78-0.29,0.87-0.7   c0.09-0.41-0.11-0.83-0.49-1.01l-3.94-1.85V59.34h51.42v18.64l-3.94,1.85c-0.38,0.18-0.59,0.59-0.49,1.01   c0.09,0.41,0.45,0.7,0.87,0.7h9.51c0.49,0,0.9-0.4,0.9-0.9V78.3V67.72c0-0.28-0.22-0.5-0.5-0.5s-0.5,0.22-0.5,0.5V77.8h-4.85V58.84   V47.45h8.54v6.91c0,0.06,0.01,0.12,0.03,0.18l7.98,21.25l-4.5,1.86L78.65,53c-0.11-0.25-0.4-0.38-0.65-0.27   c-0.25,0.11-0.38,0.4-0.27,0.65l10.28,24.81l-0.41,0.45l-2.35,1.18c-0.38,0.18-0.58,0.59-0.49,1.01c0.09,0.41,0.45,0.7,0.88,0.7   h3.51c0.07,0,0.13-0.01,0.19-0.04l5.54-2.3c0.22-0.09,0.39-0.26,0.49-0.48C95.45,78.5,95.45,78.25,95.36,78.03z M76.46,27.49v-1.58   c0-0.28-0.22-0.5-0.5-0.5h-0.07l0.9-1.67c0.04-0.07,0.06-0.15,0.06-0.24c0-0.91,0.35-1.76,1-2.4c1.28-1.28,3.52-1.28,4.81,0   c0.64,0.64,1,1.5,1,2.4c0,0.91-0.35,1.76-1,2.4l-2.41,2.41l-2.97-0.01C76.82,28.3,76.46,27.94,76.46,27.49z M18.55,26.9l-0.99-0.99   c-0.64-0.64-1-1.5-1-2.4c0-0.91,0.35-1.76,1-2.4s1.5-1,2.4-1c0.91,0,1.76,0.35,2.4,1c0.64,0.64,1,1.5,1,2.4   c0,0.08,0.02,0.16,0.06,0.24l0.9,1.67h-0.07c-0.28,0-0.5,0.22-0.5,0.5v1.58c0,0.45-0.36,0.82-0.81,0.82l-2.98,0.01L18.55,26.9z    M14.15,80.54h-2.98l-5.36-2.22l0.67-1.61l0.27,0.11l4.58,1.9l0.61,0.68c0.04,0.04,0.09,0.08,0.15,0.11L14.15,80.54z M14.86,46.45   V36.37l7.88,7.84c0.09,0.09,0.22,0.15,0.35,0.15h0.31v2.09H14.86z M18.55,80.54V78.8h5.24l3.71,1.74H18.55z M24.4,58.34V44.35h7.54   c0.37,0,0.71-0.12,0.99-0.31v0.02h1.93c1.34,0,2.43-1.09,2.43-2.43s-1.09-2.43-2.43-2.43h-1.93v0.02c-0.28-0.2-0.62-0.31-0.99-0.31   H24.4v-4.31v-3.37h51.42v3.37v4.31h-7.54c-0.37,0-0.71,0.12-0.99,0.31V39.2h-1.93c-1.34,0-2.43,1.09-2.43,2.43s1.09,2.43,2.43,2.43   h1.93v-0.02c0.28,0.2,0.62,0.31,0.99,0.31h7.54v13.98H24.4z M33.61,40.2h1.25c0.79,0,1.43,0.64,1.43,1.43s-0.64,1.43-1.43,1.43   h-1.25c0.04-0.14,0.06-0.29,0.06-0.44v-1.98C33.67,40.49,33.65,40.34,33.61,40.2z M66.61,43.06h-1.25c-0.79,0-1.43-0.64-1.43-1.43   s0.64-1.43,1.43-1.43h1.25c-0.04,0.14-0.06,0.29-0.06,0.44v1.98C66.55,42.77,66.57,42.92,66.61,43.06z M81.67,78.8v1.74h-8.95   l3.71-1.74H81.67z M76.82,46.45v-2.09h0.31c0.13,0,0.26-0.05,0.35-0.15l7.88-7.84v10.08H76.82z M89.04,80.54h-2.98l2.06-1.04   c0.05-0.03,0.1-0.06,0.14-0.11l0.62-0.68l4.84-2.01l0.67,1.61L89.04,80.54z" style="display: inline;"></path></g><g xmlns="http://www.w3.org/2000/svg" style="display: none;"><path d="M94.97,62.16v4.07c0,1.07-0.87,1.94-1.94,1.94h-4.06c-0.08,0-0.14-0.02-0.21-0.05c-0.02,0-0.03,0-0.05-0.01   c-0.26-0.08-0.41-0.36-0.33-0.63c0.18-0.58,0.27-1.18,0.27-1.79c0-0.49-0.06-0.98-0.18-1.45c-0.66-2.65-3.04-4.51-5.78-4.51   c-3.01,0-5.55,2.25-5.92,5.23c-0.03,0.25-0.24,0.44-0.5,0.44H35.36c-0.25,0-0.47-0.19-0.5-0.44c-0.36-2.98-2.91-5.23-5.92-5.23   c-2.91,0-5.38,2.08-5.87,4.94c-0.05,0.27-0.3,0.46-0.58,0.41c-0.27-0.05-0.46-0.31-0.41-0.58c0.57-3.35,3.46-5.77,6.86-5.77   c3.37,0,6.23,2.41,6.84,5.67h40.08c0.61-3.26,3.48-5.67,6.84-5.67c3.2,0,5.98,2.17,6.75,5.26c0.14,0.55,0.21,1.12,0.21,1.7   c0,0.5-0.07,0.99-0.18,1.48h3.54c0.52,0,0.94-0.42,0.94-0.94v-4.07c0-0.52-0.42-0.94-0.94-0.94h-0.79c-0.28,0-0.5-0.22-0.5-0.5   V56.4c0-0.93-0.52-1.77-1.36-2.19L80,48.48c-0.03-0.02-0.06-0.04-0.09-0.06l-6.82-6.08c-0.43-0.33-1-0.52-1.58-0.52h-7.47   c-0.94,0-1.71,0.77-1.71,1.71l0.01,16.58c0,0.83-0.67,1.5-1.5,1.5s-1.5-0.67-1.5-1.5l0.01-28.08c0-2.5-2.03-4.53-4.53-4.53H9.94   v36.64c0,0.28-0.22,0.5-0.5,0.5H7.67c-0.7,0-1.28,0.57-1.28,1.28c0,0.7,0.57,1.28,1.28,1.28h14.9c0.04,0,0.07,0.01,0.1,0.02   c0.25-0.06,0.52,0.07,0.6,0.33c0.79,2.47,3.08,4.13,5.68,4.13c2.6,0,4.88-1.66,5.67-4.13c0.07-0.21,0.26-0.35,0.48-0.35h41.46   c0.22,0,0.41,0.14,0.48,0.35c0.79,2.47,3.08,4.13,5.68,4.13c1.73,0,3.38-0.75,4.51-2.07c0.18-0.21,0.5-0.23,0.71-0.05   c0.21,0.18,0.23,0.5,0.05,0.71c-1.32,1.53-3.24,2.41-5.27,2.41c-2.91,0-5.48-1.79-6.51-4.48H35.45c-1.02,2.7-3.59,4.48-6.51,4.48   c-2.91,0-5.46-1.79-6.48-4.48H7.67c-1.25,0-2.28-1.02-2.28-2.28s1.02-2.28,2.28-2.28h1.27V26.98c0-0.28,0.22-0.5,0.5-0.5h45.39   c3.05,0,5.53,2.48,5.53,5.53L60.35,60.1c0,0.27,0.22,0.5,0.5,0.5c0.27,0,0.5-0.22,0.5-0.5l-0.01-16.58c0-1.5,1.22-2.71,2.71-2.71   h7.47c0.8,0,1.59,0.27,2.22,0.75l6.81,6.07l10.31,5.69c1.16,0.58,1.89,1.76,1.89,3.07v3.82h0.29   C94.1,60.22,94.97,61.09,94.97,62.16z M28.95,62.89c1.55,0,2.81,1.26,2.81,2.81c0,1.55-1.26,2.81-2.81,2.81s-2.81-1.26-2.81-2.81   C26.14,64.15,27.4,62.89,28.95,62.89z M28.95,63.89c-1,0-1.81,0.81-1.81,1.81s0.81,1.81,1.81,1.81s1.81-0.81,1.81-1.81   S29.94,63.89,28.95,63.89z M82.7,62.89c1.55,0,2.81,1.26,2.81,2.81c0,1.55-1.26,2.81-2.81,2.81s-2.81-1.26-2.81-2.81   C79.9,64.15,81.16,62.89,82.7,62.89z M82.7,63.89c-1,0-1.81,0.81-1.81,1.81s0.81,1.81,1.81,1.81s1.81-0.81,1.81-1.81   S83.7,63.89,82.7,63.89z M65.62,52.41c-0.84,0-1.53-0.72-1.53-1.61v-5.52c0-0.89,0.68-1.62,1.53-1.62h5.42   c0.88,0,1.72,0.35,2.38,0.99l3.98,3.88c0.1,0.09,0.15,0.22,0.15,0.36v1.91c0,0.89-0.68,1.61-1.52,1.61H65.62z M65.62,51.41h10.4   c0.29,0,0.52-0.28,0.52-0.61v-1.7l-3.83-3.73c-0.46-0.45-1.06-0.7-1.68-0.7h-5.42c-0.29,0-0.53,0.28-0.53,0.62v5.52   C65.09,51.14,65.33,51.41,65.62,51.41z M54.97,55.94c0-0.28-0.22-0.5-0.5-0.5H13.69c-0.28,0-0.5,0.22-0.5,0.5s0.22,0.5,0.5,0.5   h40.77C54.74,56.44,54.97,56.22,54.97,55.94z" style="display: inline;"></path></g><g xmlns="http://www.w3.org/2000/svg" style="display: none;"><path d="M85.04,36.58c0-1.72-1.27-3.13-2.92-3.37V17.09c0-0.28-0.22-0.5-0.5-0.5s-0.5,0.22-0.5,0.5v16.07H24.64   c-0.28,0-0.5,0.22-0.5,0.5s0.22,0.5,0.5,0.5h56.98c1.34,0,2.42,1.09,2.42,2.42s-1.09,2.42-2.42,2.42H19.14   c-0.07-0.03-0.14-0.06-0.22-0.06c-0.07,0-0.13,0.01-0.19,0.04c-1.24-0.1-2.23-1.13-2.23-2.4c0-1.34,1.09-2.42,2.42-2.42   c0.28,0,0.5-0.22,0.5-0.5c0-0.01-0.01-0.02-0.01-0.03c0-0.01,0.01-0.02,0.01-0.03V11.8c0,0,0,0,0,0s0,0,0,0   c0-0.28-0.22-0.5-0.5-0.5c-1.34,0-2.42-1.09-2.42-2.42s1.09-2.42,2.42-2.42h62.7c1.34,0,2.42,1.09,2.42,2.42s-1.09,2.42-2.42,2.42   H24.64c-0.28,0-0.5,0.22-0.5,0.5s0.22,0.5,0.5,0.5h56.98c1.89,0,3.42-1.54,3.42-3.42s-1.54-3.42-3.42-3.42h-62.7   c-1.89,0-3.42,1.54-3.42,3.42c0,1.72,1.27,3.13,2.92,3.37v20.96c-1.65,0.24-2.92,1.66-2.92,3.37s1.27,3.13,2.92,3.37v20.97   c-1.65,0.24-2.92,1.66-2.92,3.37s1.27,3.13,2.92,3.37v16.02c0,0.28,0.22,0.5,0.5,0.5s0.5-0.22,0.5-0.5V67.72h55.91   c0.28,0,0.5-0.22,0.5-0.5s-0.22-0.5-0.5-0.5H18.92c-1.34,0-2.42-1.09-2.42-2.42s1.09-2.42,2.42-2.42h62.7   c1.34,0,2.42,1.09,2.42,2.42s-1.09,2.42-2.42,2.42c-0.28,0-0.5,0.22-0.5,0.5v21.86c0,0.28,0.22,0.5,0.5,0.5   c1.34,0,2.42,1.09,2.42,2.42c0,1.34-1.09,2.42-2.42,2.42h-62.7c-1.34,0-2.42-1.09-2.42-2.42c0-1.34,1.09-2.42,2.42-2.42h56.41   c0.28,0,0.5-0.22,0.5-0.5s-0.22-0.5-0.5-0.5H18.92c-1.89,0-3.42,1.54-3.42,3.42s1.54,3.42,3.42,3.42h62.7   c1.89,0,3.42-1.54,3.42-3.42c0-1.72-1.27-3.13-2.92-3.37V67.68c1.65-0.24,2.92-1.67,2.92-3.39c0-1.72-1.27-3.13-2.92-3.37V39.96   C83.77,39.71,85.04,38.3,85.04,36.58z M81.12,40.01v20.87h-61.7V40.01H81.12z" style="display: inline;"></path></g><g xmlns="http://www.w3.org/2000/svg" style="display: none;"><path d="M91.09,49.52c-0.15-0.55-0.5-1.01-1-1.3L69.36,36.25c-0.49-0.29-1.07-0.36-1.62-0.21   c-0.55,0.15-1.01,0.5-1.3,1l-1.52,2.63c-0.15,0.26-0.4,0.45-0.69,0.53c-0.29,0.08-0.6,0.04-0.87-0.11L29.4,20.47   c-0.24-0.14-0.54-0.06-0.68,0.18c-0.14,0.24-0.06,0.54,0.18,0.68l21.77,12.58L47.78,41c-0.1,0.26,0.02,0.55,0.27,0.65   c0.25,0.1,0.55-0.02,0.65-0.27l2.85-6.95l4.57,2.64l-6.55,8.37c-0.29-0.27-0.62-0.51-0.97-0.71c-2.64-1.52-6.03-0.62-7.56,2.02   c-0.74,1.28-0.93,2.77-0.55,4.2s1.3,2.62,2.58,3.36c0.38,0.22,0.78,0.38,1.19,0.5L37.4,84.29h-2.69c-1.06,0-1.93,0.87-1.93,1.94   v2.46c0,1.06,0.86,1.93,1.93,1.93H72c0.51,0,0.93,0.42,0.93,0.93v2.02c0,0.51-0.42,0.93-0.93,0.93H27.24   c-0.51,0-0.93-0.42-0.93-0.93v-2.02c0-0.51,0.42-0.93,0.93-0.93h1.59c0.28,0,0.5-0.22,0.5-0.5s-0.22-0.5-0.5-0.5h-1.59   c-1.06,0-1.93,0.87-1.93,1.93v2.02c0,1.06,0.86,1.93,1.93,1.93H72c1.06,0,1.93-0.87,1.93-1.93v-2.02c0-1.06-0.86-1.93-1.93-1.93   H34.71c-0.51,0-0.93-0.42-0.93-0.93v-2.47c0-0.51,0.42-0.93,0.93-0.93H59.1c0.73,0,1.41-0.37,1.81-0.98   c0.4-0.62,0.46-1.38,0.17-2.06l-12.43-28c0.81-0.48,1.49-1.14,1.98-1.97c0.49-0.84,0.74-1.8,0.74-2.77c0-0.28-0.22-0.5-0.5-0.5h0   c-0.28,0-0.5,0.22-0.5,0.5c0,0.79-0.21,1.57-0.61,2.26c-0.37,0.65-0.9,1.16-1.52,1.55l-1.78-4.02c-0.09-0.2-0.29-0.32-0.5-0.29   c-0.21,0.02-0.39,0.17-0.44,0.38l-1.03,4.43c-0.31-0.1-0.62-0.22-0.91-0.39c-1.05-0.61-1.8-1.58-2.11-2.75   c-0.31-1.17-0.15-2.39,0.45-3.44c1.25-2.16,4.03-2.91,6.19-1.66c0.36,0.21,0.68,0.46,0.97,0.76l0.2,0.2   c0.1,0.1,0.24,0.15,0.38,0.14c0.14-0.01,0.27-0.08,0.36-0.19L57,37.56l5.85,3.38c0.5,0.29,1.07,0.36,1.62,0.21   c0.55-0.15,1.01-0.5,1.3-1l1.52-2.63c0.15-0.26,0.4-0.45,0.69-0.53c0.3-0.08,0.6-0.04,0.87,0.11L89.6,49.09   c0.26,0.15,0.45,0.4,0.53,0.69c0.08,0.29,0.04,0.6-0.12,0.88c-0.15,0.26-0.4,0.45-0.69,0.53c-0.29,0.08-0.6,0.04-0.87-0.11   L69.17,39.95c-0.24-0.14-0.54-0.06-0.68,0.18c-0.14,0.24-0.06,0.54,0.18,0.68l19.28,11.13c0.33,0.19,0.7,0.29,1.07,0.29   c0.19,0,0.37-0.02,0.56-0.07c0.55-0.15,1.01-0.5,1.31-1.01C91.17,50.65,91.24,50.07,91.09,49.52z M60.17,82.65   c0.16,0.37,0.13,0.77-0.09,1.11c-0.22,0.34-0.57,0.53-0.97,0.53H38.42L45.23,55c0.2,0.02,0.39,0.04,0.59,0.04   c0.48,0,0.96-0.06,1.44-0.19c0.17-0.04,0.32-0.12,0.48-0.18L60.17,82.65z M46.15,51.08l1.19,2.68c-0.11,0.04-0.22,0.09-0.33,0.12   c-0.51,0.14-1.03,0.17-1.54,0.13L46.15,51.08z M28.93,16.36l-10.85,18.8c-0.29,0.5-0.75,0.85-1.3,1c-0.18,0.05-0.37,0.07-0.56,0.07   c-0.37,0-0.74-0.1-1.07-0.29l-1.45-0.84v59.38h3.14c0.28,0,0.5,0.22,0.5,0.5s-0.22,0.5-0.5,0.5H9.56c-0.28,0-0.5-0.22-0.5-0.5   s0.22-0.5,0.5-0.5h3.14V34.53l-3.4-1.96c-0.2-0.11-0.29-0.35-0.23-0.57c1.35-4.93,3.34-9.68,5.9-14.12   c2.57-4.44,5.69-8.54,9.28-12.17c0.16-0.16,0.41-0.19,0.61-0.08l5.85,3.38c1.06,0.61,1.36,1.92,0.71,3.04L31,12.78   c-0.31,0.54-0.13,1.24,0.42,1.56l34.42,19.87c0.24,0.14,0.32,0.44,0.18,0.68c-0.14,0.24-0.44,0.32-0.68,0.18L30.92,15.21   c-1.02-0.59-1.37-1.9-0.78-2.92l0.42-0.73c0.37-0.64,0.22-1.35-0.35-1.68l-5.51-3.18c-3.42,3.5-6.39,7.44-8.85,11.69   c-2.46,4.26-4.38,8.8-5.7,13.51l5.51,3.18c0.55,0.31,1.24,0.13,1.56-0.42l10.85-18.8c0.14-0.24,0.44-0.32,0.68-0.18   C28.99,15.82,29.07,16.13,28.93,16.36z" style="display: inline;"></path></g><g xmlns="http://www.w3.org/2000/svg" style="display: none;"><path d="M40.5,35.19c-0.09-0.15-0.25-0.24-0.43-0.24H15.94c-0.18,0-0.34,0.09-0.43,0.24l-2.18,3.64   c-3.85,6.41-5.88,13.75-5.88,21.23v33.2c0,1.22,0.99,2.22,2.22,2.22h36.69c1.22,0,2.22-0.99,2.22-2.22v-33.2   c0-7.48-2.03-14.82-5.88-21.23L40.5,35.19z M14.18,39.35l2.04-3.4h23.57l2.04,3.4c3.33,5.55,5.26,11.82,5.65,18.25H8.53   C8.92,51.16,10.85,44.9,14.18,39.35z M8.44,60.07c0-0.49,0.03-0.98,0.05-1.47h39.02c0.02,0.49,0.05,0.98,0.05,1.47v16.4H8.44V60.07   z M46.35,94.48H9.66c-0.67,0-1.22-0.55-1.22-1.22v-15.8h39.12v15.8C47.57,93.94,47.02,94.48,46.35,94.48z M13.97,32.52h28.06   c1.22,0,2.22-0.99,2.22-2.22v-3.43c0-1.22-0.99-2.22-2.22-2.22H13.97c-1.22,0-2.22,0.99-2.22,2.22v3.43   C11.76,31.52,12.75,32.52,13.97,32.52z M12.76,26.87c0-0.67,0.55-1.22,1.22-1.22h28.06c0.67,0,1.22,0.55,1.22,1.22v3.43   c0,0.67-0.55,1.22-1.22,1.22H13.97c-0.67,0-1.22-0.55-1.22-1.22V26.87z M89.88,5.52H30.12c-1.22,0-2.22,0.99-2.22,2.22v13.35   c0,0.28,0.22,0.5,0.5,0.5s0.5-0.22,0.5-0.5v-3.96H91.1v76.14c0,0.67-0.54,1.22-1.21,1.22H53.92c-0.28,0-0.5,0.22-0.5,0.5   s0.22,0.5,0.5,0.5h35.96c1.22,0,2.21-0.99,2.21-2.22V7.73C92.1,6.51,91.11,5.52,89.88,5.52z M28.91,16.12V7.73   c0-0.67,0.55-1.22,1.22-1.22h59.76c0.67,0,1.21,0.55,1.21,1.22v8.39H28.91z" style="display: inline;"></path></g><g xmlns="http://www.w3.org/2000/svg" style="display: none;"><path d="M26.98,72.95l4.56-7.07c0.4-0.61,1.07-0.98,1.8-0.98h46.17c0.49,0,0.92-0.31,1.08-0.77l13.59-39.1   c0.12-0.35,0.07-0.73-0.15-1.04c-0.22-0.31-0.56-0.48-0.93-0.48H25.75c-1,0-1.86-0.68-2.09-1.66l-0.81-3.53   c-0.07-0.31-0.27-0.57-0.54-0.73L9.25,9.94c-0.94-0.55-2.14-0.23-2.69,0.7c-0.55,0.93-0.23,2.14,0.7,2.69l11.22,6.56   c0.51,0.3,0.88,0.8,1.01,1.37l9.46,41.09c0.03,0.13,0.01,0.27-0.07,0.38l-7.67,11.88c-0.39,0.61-0.42,1.37-0.08,2.01   c0.34,0.63,1.01,1.02,1.73,1.02h65.09c1.08,0,1.97-0.88,1.97-1.96c0-1.08-0.88-1.97-1.97-1.97H34.38c-0.28,0-0.5-0.22-0.5-0.5   s0.22-0.5,0.5-0.5h53.58c1.64,0,2.97,1.33,2.97,2.97c0,1.63-1.33,2.96-2.97,2.96H22.87c-1.09,0-2.09-0.59-2.6-1.55   c-0.52-0.95-0.48-2.12,0.11-3.03l7.56-11.7l-9.42-40.89c-0.07-0.31-0.27-0.57-0.54-0.73L6.76,14.2c-1.41-0.83-1.89-2.65-1.06-4.06   c0.83-1.41,2.65-1.88,4.06-1.06l13.06,7.64c0.51,0.3,0.87,0.8,1.01,1.37l0.81,3.53c0.12,0.52,0.58,0.89,1.11,0.89H93.1   c0.7,0,1.34,0.33,1.75,0.9c0.41,0.57,0.51,1.28,0.28,1.95l-13.59,39.1c-0.3,0.86-1.11,1.44-2.03,1.44H33.34   c-0.39,0-0.75,0.2-0.96,0.52l-4.56,7.07c-0.15,0.23-0.46,0.3-0.69,0.15C26.89,73.49,26.83,73.18,26.98,72.95z M26.75,28.87   c-0.22,0.27-0.3,0.63-0.22,0.97l1.84,7.98h5.51v-9.79c0-0.02,0.01-0.03,0.01-0.04c0-0.01-0.01-0.03-0.01-0.04   c0-0.28,0.22-0.5,0.5-0.5h51.79c0.7,0,1.34,0.33,1.75,0.9c0.41,0.57,0.51,1.28,0.28,1.95L81.55,49.4   c-0.07,0.21-0.27,0.34-0.47,0.34c-0.01,0-0.03-0.01-0.04-0.01c-0.01,0-0.02,0.01-0.03,0.01h-3.99v10.73c0,0.28-0.22,0.5-0.5,0.5   c-0.09,0-0.18-0.03-0.25-0.08c-0.08,0.05-0.16,0.08-0.25,0.08H34.38c-1,0-1.86-0.68-2.09-1.66l-6.73-29.24   c-0.15-0.64,0-1.3,0.41-1.82c0.41-0.51,1.02-0.81,1.68-0.81h1.94c0.28,0,0.5,0.22,0.5,0.5s-0.22,0.5-0.5,0.5h-1.94   C27.29,28.44,26.97,28.6,26.75,28.87z M34.38,59.97h10.03V49.73h-13.3l2.15,9.35C33.38,59.6,33.84,59.97,34.38,59.97z M34.88,48.4   c0,0.13-0.05,0.25-0.13,0.34h9.67v-9.92h-9.53V48.4z M65.48,38.82h-9.53v9.92h9.53V38.82z M66.48,48.73h9.53v-9.92h-9.53V48.73z    M55.95,59.97h9.53V49.73h-9.53V59.97z M54.95,49.73h-9.53v10.23h9.53V49.73z M65.48,37.82v-9.38h-9.53v9.38H65.48z M54.95,28.44   h-9.53v9.38h9.53V28.44z M45.41,38.82v9.92h9.53v-9.92H45.41z M76.01,49.73h-9.53v10.23h9.53c0,0,0.01,0,0.01,0V49.73z    M84.17,38.82h-7.16v9.92h3.71L84.17,38.82z M86.17,28.44H66.48v9.38h9.53v-5.58c0-0.28,0.22-0.5,0.5-0.5s0.5,0.22,0.5,0.5v5.58   h7.5l2.73-7.86c0.12-0.35,0.07-0.73-0.15-1.04C86.88,28.61,86.54,28.44,86.17,28.44z M34.88,37.82h9.53v-9.38h-9.53V37.82z    M28.6,38.82l2.28,9.92c0,0,0,0,0,0h3.13c-0.08-0.09-0.13-0.21-0.13-0.34v-9.58H28.6z M38.07,87.21c0,2.96-2.41,5.37-5.37,5.37   c-2.96,0-5.37-2.41-5.37-5.37s2.41-5.37,5.37-5.37C35.66,81.84,38.07,84.25,38.07,87.21z M37.07,87.21c0-2.41-1.96-4.37-4.37-4.37   c-2.41,0-4.37,1.96-4.37,4.37c0,2.41,1.96,4.37,4.37,4.37C35.11,91.59,37.07,89.62,37.07,87.21z M81.55,87.21   c0,2.96-2.41,5.37-5.37,5.37s-5.37-2.41-5.37-5.37s2.41-5.37,5.37-5.37S81.55,84.25,81.55,87.21z M80.55,87.21   c0-2.41-1.96-4.37-4.37-4.37c-2.41,0-4.37,1.96-4.37,4.37c0,2.41,1.96,4.37,4.37,4.37C78.59,91.59,80.55,89.62,80.55,87.21z" style="display: inline;"></path></g><g xmlns="http://www.w3.org/2000/svg" style="display: none;"><path d="M93.13,80.31c-0.28,0-0.5,0.22-0.5,0.5v10.75c0,0.85-0.69,1.55-1.55,1.55H41.6c-0.85,0-1.55-0.69-1.55-1.55   V80.8c0-0.85,0.69-1.55,1.55-1.55H83.9c0.22,0,0.41-0.14,0.48-0.35c0.06-0.21-0.02-0.44-0.2-0.56L68.59,67.91v-9.7   c0-1.4-1.14-2.55-2.55-2.55h-0.38l8.05-11.62c0.09,0.15,0.24,0.26,0.43,0.26c0.01,0,0.02,0,0.02,0   c5.81-0.27,10.36-5.05,10.36-10.87c0-2.48-0.86-4.88-2.41-6.81h3.85c5.18,0,9.39-4.21,9.39-9.39s-4.21-9.39-9.39-9.39H53.76   c-0.28,0-0.5,0.22-0.5,0.5v12.58H14.84v-9.48c0-2.66-2.16-4.82-4.82-4.82S5.2,8.81,5.2,11.46v24.08c0,0.28,0.22,0.5,0.5,0.5h3.82   v8.18c0,0.28,0.22,0.5,0.5,0.5s0.5-0.22,0.5-0.5v-8.18h3.82c0.28,0,0.5-0.22,0.5-0.5v-9.42c0-0.28-0.22-0.5-0.5-0.5   s-0.5,0.22-0.5,0.5v8.92H6.2V11.46c0-2.11,1.71-3.82,3.82-3.82s3.82,1.71,3.82,3.82v9.98c0,0.28,0.22,0.5,0.5,0.5h39.42   c0.28,0,0.5-0.22,0.5-0.5V8.86h31.72c4.62,0,8.39,3.76,8.39,8.39s-3.76,8.39-8.39,8.39H53.76c-0.28,0-0.5,0.22-0.5,0.5   s0.22,0.5,0.5,0.5h10.42c-1.55,1.93-2.41,4.33-2.41,6.81c0,1.59,0.33,3.12,1,4.55l-12.05,17.9c-0.02,0.02-0.02,0.05-0.03,0.08   c-0.82,0.42-1.38,1.27-1.38,2.25v16.04c0,0.28,0.22,0.5,0.5,0.5s0.5-0.22,0.5-0.5V58.22c0-0.85,0.69-1.55,1.55-1.55h14.19   c0.85,0,1.55,0.69,1.55,1.55v9.96c0,0.17,0.08,0.32,0.22,0.42l14.44,9.65H41.6c-1.4,0-2.55,1.14-2.55,2.55v10.77   c0,1.4,1.14,2.55,2.55,2.55h49.48c1.4,0,2.55-1.14,2.55-2.55V80.81C93.63,80.54,93.41,80.31,93.13,80.31z M52.07,55.67l17.19-25.54   c1.49-2.46,4.72-3.28,7.21-1.84c1.24,0.72,2.12,1.89,2.47,3.28c0.35,1.39,0.14,2.83-0.59,4.04l-13.9,20.06H52.07z M81.13,26.98   c1.55,1.79,2.4,4.09,2.4,6.46c0,5.25-4.07,9.55-9.29,9.86l4.95-7.15c0.88-1.46,1.14-3.17,0.72-4.83c-0.42-1.65-1.46-3.04-2.94-3.89   c-0.76-0.44-1.58-0.7-2.41-0.8h6.45C81.01,26.75,81.04,26.88,81.13,26.98z M62.77,33.44c0-2.37,0.85-4.67,2.41-6.46   c0.09-0.1,0.12-0.22,0.12-0.35h7.82c-1.88,0.21-3.65,1.25-4.69,2.96l-4.98,7.4C63,35.86,62.77,34.67,62.77,33.44z M17.39,13.04   c0-0.28,0.22-0.5,0.5-0.5H50.2c0.28,0,0.5,0.22,0.5,0.5s-0.22,0.5-0.5,0.5H17.89C17.62,13.54,17.39,13.32,17.39,13.04z" style="display: inline;"></path></g><g xmlns="http://www.w3.org/2000/svg" style="display: none;"><path d="M90.17,64.59c4.25-16.57-2.32-34.66-16.99-44.42c-3.66-2.43-7.62-4.25-11.78-5.41   c-0.99-5.2-5.57-9.15-11.06-9.15c-5.45,0-10.05,3.83-11.05,9.15C22.81,19.36,10.43,34.09,9.31,51.67   c-0.28,4.36,0.12,8.68,1.18,12.85c-1.69,1.46-2.91,3.39-3.5,5.59c-0.78,2.91-0.38,5.94,1.12,8.55c2.07,3.59,5.81,5.65,9.72,5.65   c1.24,0,2.49-0.22,3.72-0.65c7.76,7.59,18.23,11.72,28.88,11.72c6.13,0,12.32-1.37,18.08-4.22c3.92-1.94,7.45-4.46,10.53-7.46   c1.2,0.43,2.46,0.67,3.73,0.67c0.98,0,1.96-0.13,2.93-0.39c2.91-0.78,5.33-2.64,6.84-5.25C95.29,74.01,94.27,68.12,90.17,64.59z    M72.63,21C89.09,31.95,95.1,53.65,86.62,71.49c-0.51,1.08-1.08,2.16-1.69,3.19c0,0,0,0.01,0,0.01c0,0,0,0,0,0   c-0.33,0.56-0.85,0.96-1.48,1.13c-0.62,0.17-1.28,0.08-1.84-0.24c-0.56-0.33-0.96-0.85-1.13-1.48s-0.08-1.28,0.24-1.84   c0.04-0.07,0.06-0.15,0.06-0.22c0.08-0.04,0.15-0.11,0.2-0.19c0.41-0.71,0.79-1.45,1.16-2.2c7.31-15.11,1.6-35.64-12.48-44.81   c-2.73-1.78-5.67-3.16-8.74-4.13c0.44-1.2,0.69-2.5,0.69-3.85c0-0.35-0.02-0.69-0.05-1.03C65.46,16.98,69.19,18.71,72.63,21z    M16.89,61.82c-0.68-3.06-0.94-6.21-0.77-9.38C16.85,39,27.39,26.22,40.21,21.77c1.88,3.88,5.8,6.36,10.13,6.36   c4.5,0,8.39-2.66,10.19-6.49c3.01,0.94,5.9,2.29,8.58,4.04c11.28,7.36,17.08,22.87,14.52,36.2c-4.28-0.31-8.41,1.84-10.57,5.6   c-2.24,3.88-1.89,8.56,0.5,12.03c-2.31,2.13-4.92,3.94-7.76,5.38c-12.01,6.09-28.35,3.36-38.61-5.52c2.42-3.56,2.61-8.2,0.44-11.96   c-1.5-2.61-3.93-4.47-6.84-5.25C19.5,61.81,18.19,61.71,16.89,61.82z M50.34,6.6c5.66,0,10.26,4.6,10.26,10.26   S56,27.13,50.34,27.13c-3.9,0-7.44-2.21-9.17-5.67c2.15-0.67,4.36-1.12,6.6-1.28c0.8-0.06,1.62-0.09,2.42-0.09   c0.08,0,0.16-0.03,0.23-0.06c0.08,0.05,0.16,0.08,0.25,0.08c1.89,0,3.43-1.54,3.43-3.43s-1.54-3.43-3.43-3.43c0,0,0,0-0.01,0   c-1.22-0.01-2.47,0.04-3.7,0.13c-2.25,0.18-4.46,0.56-6.6,1.09C41.46,9.87,45.54,6.6,50.34,6.6z M10.31,51.73   c1.25-19.73,17.04-35.79,36.73-37.36c1.2-0.1,2.42-0.14,3.61-0.13c0,0,0.01,0,0.01,0c0,0,0,0,0,0c1.34,0,2.43,1.09,2.43,2.43   S52,19.1,50.67,19.1c-0.08,0-0.16,0.03-0.23,0.06c-0.08-0.05-0.16-0.08-0.25-0.08c0,0,0,0,0,0c-0.82,0-1.66,0.04-2.48,0.1   C30.95,20.4,16.04,35.61,15.13,52.39c-0.18,3.23,0.09,6.44,0.78,9.56c-1.27,0.23-2.51,0.66-3.66,1.33c-0.3,0.18-0.6,0.37-0.88,0.57   C10.41,59.91,10.05,55.84,10.31,51.73z M8.99,78.17c-1.37-2.37-1.73-5.14-1.03-7.79c0.71-2.65,2.41-4.86,4.78-6.23   s5.14-1.73,7.79-1.03c2.65,0.71,4.86,2.41,6.23,4.78c1.95,3.38,1.79,7.53-0.34,10.77c-1.65-1.53-3.14-3.21-4.39-5.06   c-0.45-0.67-0.89-1.35-1.29-2.05c-0.04-0.07-0.1-0.12-0.17-0.16c0-0.09-0.01-0.18-0.06-0.26c-0.46-0.79-1.2-1.36-2.08-1.6   c-0.89-0.24-1.81-0.12-2.6,0.34c-1.64,0.95-2.2,3.05-1.26,4.68c0,0,0,0,0,0c0,0,0,0,0,0c0.61,1.07,1.27,2.12,1.97,3.13   c1.28,1.86,2.72,3.58,4.25,5.16C16.26,84.23,11.39,82.33,8.99,78.17z M68.09,90.27c-17.71,8.78-39.52,3.13-50.72-13.13   c-0.68-0.99-1.33-2.02-1.92-3.06c0,0,0,0-0.01-0.01c0,0,0,0,0,0c-0.67-1.16-0.27-2.65,0.89-3.32c1.16-0.67,2.65-0.27,3.32,0.89   c0.04,0.07,0.1,0.12,0.17,0.17c0,0.09,0.01,0.18,0.06,0.26c0.42,0.71,0.86,1.42,1.33,2.1c6.5,9.58,18.33,15.08,29.96,15.08   c5.24,0,10.43-1.12,15.09-3.48c2.89-1.47,5.55-3.32,7.91-5.48c0.83,1,1.83,1.88,3.02,2.56c0.28,0.16,0.57,0.29,0.87,0.43   C75.11,86.08,71.78,88.44,68.09,90.27z M91.7,78.23c-1.37,2.37-3.58,4.07-6.23,4.78c-2.04,0.55-4.15,0.45-6.1-0.25   c-0.01-0.01-0.01-0.02-0.02-0.03c-0.11-0.11-0.26-0.15-0.4-0.14c-0.43-0.18-0.86-0.37-1.27-0.61c-4.9-2.83-6.59-9.12-3.76-14.02   c1.95-3.38,5.62-5.34,9.5-5.11c-0.5,2.2-1.22,4.34-2.19,6.36c-0.35,0.73-0.73,1.45-1.13,2.14c-0.04,0.07-0.06,0.15-0.06,0.23   c-0.08,0.04-0.15,0.1-0.19,0.18c-0.46,0.79-0.58,1.72-0.34,2.6c0.24,0.88,0.81,1.62,1.6,2.08c0.53,0.31,1.12,0.46,1.71,0.46   c0.3,0,0.6-0.04,0.89-0.12c0.88-0.24,1.62-0.81,2.08-1.6c0,0,0,0,0,0c0,0,0,0,0,0c0.62-1.06,1.21-2.16,1.73-3.27   c0.97-2.04,1.75-4.14,2.35-6.26C93.31,68.91,94.11,74.07,91.7,78.23z M34.53,63.64V51.8c0-0.28,0.22-0.5,0.5-0.5s0.5,0.22,0.5,0.5   v11.84c0,0.36,0.17,0.7,0.46,0.91l12.06,8.8c0.35,0.26,0.79,0.29,1.17,0.09c0.39-0.2,0.62-0.57,0.62-1V59.52   c0-0.36-0.17-0.7-0.46-0.91l-12.85-9.37c-0.56-0.4-0.87-1.03-0.87-1.72s0.32-1.31,0.87-1.72l12.56-9.16c0.75-0.55,1.76-0.55,2.51,0   l12.56,9.16c0.55,0.4,0.87,1.03,0.87,1.72s-0.32,1.31-0.87,1.72l-10.04,7.32c-0.22,0.16-0.54,0.11-0.7-0.11   c-0.16-0.22-0.11-0.54,0.11-0.7l10.04-7.32c0.29-0.21,0.46-0.55,0.46-0.91s-0.17-0.7-0.46-0.91l-12.56-9.16   c-0.4-0.29-0.93-0.29-1.33,0l-12.56,9.16c-0.29,0.21-0.46,0.55-0.46,0.91s0.17,0.7,0.46,0.91l12.85,9.37   c0.55,0.4,0.87,1.04,0.87,1.72v12.92c0,0.8-0.45,1.53-1.16,1.9c-0.31,0.16-0.64,0.23-0.96,0.23c-0.44,0-0.88-0.14-1.25-0.41   l-12.06-8.8C34.85,64.96,34.53,64.32,34.53,63.64z M65.16,63.64V51.8c0-0.28,0.22-0.5,0.5-0.5s0.5,0.22,0.5,0.5v11.84   c0,0.68-0.33,1.32-0.87,1.72l-11.56,8.43c-0.09,0.06-0.19,0.1-0.29,0.1c-0.15,0-0.31-0.07-0.4-0.21c-0.16-0.22-0.11-0.54,0.11-0.7   l11.56-8.43C64.99,64.34,65.16,64,65.16,63.64z" style="display: inline;"></path></g><g xmlns="http://www.w3.org/2000/svg" style="display: none;"><path d="M11.72,58.96v-2.98c0-0.28,0.22-0.5,0.5-0.5s0.5,0.22,0.5,0.5v2.98c0,0.28-0.22,0.5-0.5,0.5   S11.72,59.23,11.72,58.96z M7.65,58.9l2.58,1.49c0.08,0.05,0.16,0.07,0.25,0.07c0.17,0,0.34-0.09,0.43-0.25   c0.14-0.24,0.06-0.54-0.18-0.68l-2.58-1.49c-0.24-0.14-0.54-0.06-0.68,0.18S7.41,58.76,7.65,58.9z M7.47,63.7   c0.09,0.16,0.26,0.25,0.43,0.25c0.08,0,0.17-0.02,0.25-0.07l2.58-1.49c0.24-0.14,0.32-0.44,0.18-0.68   c-0.14-0.24-0.44-0.32-0.68-0.18l-2.58,1.49C7.41,63.16,7.33,63.46,7.47,63.7z M13.95,60.46c0.08,0,0.17-0.02,0.25-0.07l2.58-1.49   c0.24-0.14,0.32-0.44,0.18-0.68c-0.14-0.24-0.45-0.32-0.68-0.18l-2.58,1.49c-0.24,0.14-0.32,0.44-0.18,0.68   C13.61,60.37,13.78,60.46,13.95,60.46z M38.96,55.92v11c0,0.77-0.63,1.4-1.4,1.4h-2.07c-0.77,0-1.4-0.63-1.4-1.4v-7.35   c0-0.02-0.01-0.03-0.01-0.04s0.01-0.03,0.01-0.04v-5.94h-1.37c-0.67,0-1.24-0.47-1.37-1.13l-1.9-11.79   c-0.05-0.26,0.02-0.55,0.2-0.77c0.18-0.22,0.45-0.35,0.73-0.35h1.69c0.45,0,0.84,0.32,0.93,0.76l2.01,12.27h5.69   c0.22,0,0.4-0.18,0.4-0.4V39.28c0-0.22-0.18-0.4-0.4-0.4H27.16c-0.28,0-0.5-0.22-0.5-0.5s0.22-0.5,0.5-0.5H40.7   c0.77,0,1.4,0.63,1.4,1.4v12.87c0,0.77-0.63,1.4-1.4,1.4h-5.61v5.49h2.87v-3.1c0-0.28,0.22-0.5,0.5-0.5S38.96,55.65,38.96,55.92z    M35.09,60.03v3.15h2.87v-3.15H35.09z M34,52.54l-1.98-12.09l-1.64,0.06l1.95,11.73c0.03,0.17,0.2,0.3,0.39,0.3H34z M37.96,66.92   v-2.75h-2.87v2.75c0,0.22,0.18,0.4,0.4,0.4h2.07C37.78,67.32,37.96,67.14,37.96,66.92z M84.67,61.88h1.19c0.28,0,0.5-0.22,0.5-0.5   s-0.22-0.5-0.5-0.5h-1.19c-0.14,0-0.27-0.1-0.32-0.25c-1.34-4.1-4.87-6.96-8.57-6.96c-3.44,0-6.54,1.91-8.09,4.98   c-0.08,0.15-0.21,0.24-0.36,0.24c0,0,0,0,0,0l-4.97,0c-0.16,0-0.29-0.1-0.37-0.26c-1.66-3.72-5.39-6.12-9.49-6.12l-7.6,0   c-0.11,0-0.21-0.04-0.28-0.11c-0.08-0.08-0.12-0.18-0.12-0.29l0.03-21.68c0-0.22,0.18-0.4,0.4-0.4h17.09c0.22,0,0.4,0.18,0.4,0.4   v2.9c0,0.28,0.22,0.5,0.5,0.5s0.5-0.22,0.5-0.5v-2.9c0-0.77-0.63-1.4-1.4-1.4H44.93c-0.77,0-1.4,0.63-1.4,1.4L43.5,52.11   c0,0.38,0.15,0.74,0.42,1c0.27,0.26,0.62,0.39,0.99,0.39l7.59,0c3.71,0,7.08,2.17,8.58,5.53c0.23,0.52,0.73,0.85,1.28,0.85l4.97,0   c0,0,0,0,0,0c0.53,0,1.01-0.3,1.25-0.79c1.38-2.73,4.14-4.43,7.19-4.43c3.65,0,6.59,3.15,7.62,6.27   C83.58,61.5,84.09,61.88,84.67,61.88z M93.15,39.84h-9.93c-0.07,0-0.13-0.03-0.17-0.07l-2.04-2.04c-0.4-0.4-0.95-0.63-1.51-0.63   H68.16c-0.73,0-1.46,0.16-2.13,0.47l-7.1,3.3c-0.17,0.08-0.34,0.12-0.53,0.12c-0.01,0-0.01,0-0.02,0c-0.5,0-0.96-0.29-1.17-0.74   c-0.3-0.65-0.02-1.42,0.62-1.72l23.99-11.16c0.03-0.02,0.06-0.03,0.09-0.05l3.63-1.71c0.3-0.14,0.61-0.15,0.88-0.03   c0.26,0.12,0.46,0.37,0.57,0.78l2.27,4.82c0.23,0.5,0.12,0.8,0.08,0.83c-0.02,0-0.09-0.02-0.21-0.14l-3.07-2.8   c-0.38-0.34-0.91-0.42-1.37-0.21l-1.68,0.79c-0.01,0-0.09,0.05-0.1,0.06L72.42,34.6c-0.25,0.12-0.36,0.41-0.24,0.66   c0.12,0.25,0.42,0.36,0.66,0.24l10.51-4.89c0.04-0.02,0.08-0.04,0.1-0.06l1.68-0.79c0.09-0.04,0.2-0.03,0.27,0.04l3.06,2.79   c0.55,0.54,1.13,0.46,1.45,0.23c0.54-0.38,0.65-1.23,0.26-2.08l-2.24-4.74c-0.16-0.61-0.55-1.09-1.09-1.34   c-0.54-0.25-1.15-0.24-1.73,0.03l-3.72,1.75c-0.03,0.01-0.06,0.03-0.08,0.05L57.41,37.63c-1.14,0.54-1.64,1.91-1.1,3.05   c0.38,0.81,1.2,1.29,2.11,1.32c0.33-0.01,0.64-0.08,0.94-0.22l7.1-3.3c0.53-0.25,1.12-0.38,1.71-0.38h11.33   c0.3,0,0.59,0.12,0.81,0.33l2.04,2.04c0.23,0.23,0.55,0.37,0.88,0.37h9.93c0.63,0,1.14,0.51,1.14,1.14v10.65   c0,0.11-0.05,0.22-0.13,0.3l-5.97,5.12c-0.35,0.26-0.55,0.68-0.55,1.11v1.48c0,0.69,0.56,1.25,1.25,1.25h1.62   c0.22,0,0.4,0.18,0.4,0.4v1.57c0,0.22-0.18,0.4-0.4,0.4h-6.23c-0.28,0-0.5,0.22-0.5,0.5s0.22,0.5,0.5,0.5h6.23   c0.77,0,1.4-0.63,1.4-1.4v-1.57c0-0.77-0.63-1.4-1.4-1.4h-1.62c-0.14,0-0.25-0.11-0.25-0.25v-1.48c0-0.12,0.06-0.24,0.18-0.33   l6-5.14c0.31-0.27,0.48-0.65,0.48-1.05V41.98C95.3,40.8,94.34,39.84,93.15,39.84z M52.04,62.86c0,1.86-1.51,3.37-3.37,3.37   s-3.37-1.51-3.37-3.37s1.51-3.37,3.37-3.37S52.04,61,52.04,62.86z M51.04,62.86c0-1.31-1.06-2.37-2.37-2.37s-2.37,1.06-2.37,2.37   s1.06,2.37,2.37,2.37S51.04,64.17,51.04,62.86z M78.52,64.85c0,1.51-1.23,2.74-2.74,2.74s-2.74-1.23-2.74-2.74   c0-1.51,1.23-2.74,2.74-2.74S78.52,63.34,78.52,64.85z M77.52,64.85c0-0.96-0.78-1.74-1.74-1.74s-1.74,0.78-1.74,1.74   s0.78,1.74,1.74,1.74S77.52,65.81,77.52,64.85z M82.64,64.77c0,0.02,0,0.03,0,0.04c0,0.01,0,0.03,0,0.04   c0,0.33-0.25,0.59-0.56,0.65c-0.08,0.78-0.31,1.52-0.65,2.2c0.24,0.22,0.31,0.57,0.13,0.86c-0.13,0.2-0.35,0.3-0.56,0.3   c-0.09,0-0.18-0.02-0.27-0.06c-0.48,0.6-1.06,1.1-1.72,1.49c0.09,0.31-0.05,0.65-0.35,0.79c-0.09,0.04-0.18,0.06-0.28,0.06   c-0.21,0-0.41-0.12-0.54-0.31c-0.64,0.22-1.33,0.35-2.05,0.35c-0.08,0-0.15-0.01-0.23-0.01c-0.08,0.28-0.33,0.48-0.63,0.48   c-0.04,0-0.06,0-0.1,0c-0.33-0.05-0.56-0.33-0.57-0.66c-0.76-0.19-1.46-0.51-2.08-0.94c-0.12,0.11-0.27,0.17-0.42,0.17   c-0.15,0-0.31-0.05-0.44-0.16c-0.25-0.22-0.29-0.58-0.12-0.86c-0.52-0.55-0.95-1.2-1.25-1.91c-0.03,0-0.06,0.01-0.08,0.01   c-0.3,0-0.56-0.19-0.65-0.48c-0.1-0.31,0.07-0.64,0.36-0.78c-0.05-0.26-0.08-0.52-0.09-0.79H56.52c-0.06,0.19-0.13,0.37-0.2,0.56   c0,0,0.01,0,0.01,0c0.34,0.16,0.47,0.56,0.31,0.9c-0.12,0.24-0.36,0.38-0.6,0.38c-0.1,0-0.2-0.02-0.3-0.06c0,0-0.01-0.01-0.01-0.01   c-0.4,0.67-0.89,1.29-1.45,1.82c0,0,0.01,0,0.01,0.01c0.23,0.29,0.19,0.71-0.11,0.94c-0.12,0.1-0.27,0.15-0.41,0.15   c-0.2,0-0.39-0.09-0.53-0.26c-0.64,0.43-1.35,0.78-2.1,1.01c0.08,0.37-0.14,0.72-0.5,0.81c-0.05,0.01-0.1,0.02-0.15,0.02   c-0.3,0-0.58-0.21-0.65-0.52c0,0,0-0.01,0-0.01c-0.38,0.06-0.77,0.09-1.17,0.09c-0.39,0-0.78-0.04-1.16-0.09c0,0,0,0.01,0,0.01   c-0.07,0.31-0.34,0.53-0.65,0.53c-0.05,0-0.1-0.01-0.14-0.02c-0.37-0.08-0.59-0.45-0.51-0.81c0,0,0,0,0,0   c-0.75-0.24-1.46-0.58-2.1-1.01c0,0,0,0,0,0c-0.13,0.17-0.33,0.26-0.53,0.26c-0.14,0-0.3-0.05-0.41-0.15   c-0.3-0.23-0.34-0.65-0.11-0.94c0,0,0,0,0.01-0.01c-0.57-0.53-1.06-1.15-1.46-1.82c0,0-0.01,0.01-0.01,0.01   c-0.09,0.05-0.19,0.07-0.29,0.07c-0.25,0-0.49-0.14-0.61-0.38c-0.16-0.34-0.02-0.73,0.31-0.91c0,0,0.01,0,0.01,0   c-0.28-0.71-0.46-1.47-0.52-2.27c0,0,0,0,0,0c-0.38,0-0.67-0.3-0.67-0.66c0,0,0,0,0-0.01c0-0.37,0.3-0.67,0.67-0.67c0,0,0,0,0,0   c0.06-0.79,0.24-1.55,0.51-2.26c-0.01,0-0.01,0-0.02,0c-0.33-0.16-0.48-0.56-0.31-0.9c0.16-0.33,0.56-0.48,0.9-0.31   c0,0,0.01,0.01,0.01,0.01c0.4-0.68,0.89-1.29,1.45-1.83c0,0-0.01,0-0.01-0.01c-0.23-0.29-0.19-0.71,0.1-0.94   c0.3-0.23,0.72-0.19,0.95,0.1c0,0,0,0,0,0.01c0.64-0.43,1.35-0.78,2.1-1.02c0,0,0,0,0,0c-0.09-0.36,0.13-0.73,0.5-0.81   c0.36-0.08,0.72,0.14,0.81,0.5c0,0,0,0.01,0,0.01c0.39-0.06,0.78-0.1,1.19-0.1c0.39,0,0.76,0.04,1.14,0.09c0-0.01,0-0.01,0-0.01   c0.08-0.36,0.44-0.58,0.81-0.5c0.36,0.08,0.59,0.44,0.51,0.8c0,0,0,0,0,0.01c0.75,0.24,1.45,0.58,2.1,1.01c0,0,0,0,0-0.01   c0.23-0.29,0.65-0.34,0.94-0.11c0.3,0.23,0.34,0.65,0.11,0.95c0,0,0,0,0,0c0.57,0.53,1.06,1.14,1.46,1.81c0,0,0,0,0.01-0.01   c0.33-0.16,0.74-0.03,0.91,0.3c0,0,0,0-0.01,0c0.17,0.34,0.03,0.74-0.3,0.91c0,0-0.01,0-0.01,0c0.28,0.71,0.46,1.47,0.53,2.27   c0,0,0,0,0,0c0.38,0,0.68,0.3,0.68,0.66c0,0.01,0,0.02,0,0.02c0,0.01,0,0.02,0,0.03c0,0.37-0.3,0.67-0.67,0.67c0,0-0.01,0-0.01,0   c-0.02,0.24-0.05,0.48-0.09,0.71h12.73c0.02-0.17,0.04-0.33,0.07-0.5c-0.29-0.14-0.46-0.46-0.37-0.78   c0.09-0.32,0.41-0.51,0.73-0.47c0.29-0.72,0.71-1.37,1.23-1.92c-0.18-0.27-0.15-0.64,0.11-0.86c0,0,0,0-0.01,0   c0.25-0.22,0.62-0.21,0.87,0c0.62-0.44,1.32-0.77,2.07-0.97c0-0.32,0.23-0.61,0.56-0.67c0.33-0.05,0.63,0.16,0.73,0.47   c0.1,0,0.2-0.02,0.3-0.02c0.69,0,1.34,0.11,1.96,0.32c0.18-0.27,0.52-0.39,0.83-0.25c0.31,0.14,0.45,0.47,0.36,0.79   c0.67,0.39,1.26,0.88,1.75,1.48c0.3-0.13,0.65-0.05,0.83,0.23c0.19,0.28,0.12,0.64-0.12,0.86c0.35,0.67,0.58,1.41,0.67,2.19   C82.38,64.18,82.64,64.44,82.64,64.77z M55.88,62.86c0-3.97-3.23-7.21-7.21-7.21s-7.21,3.23-7.21,7.21s3.23,7.21,7.21,7.21   S55.88,66.83,55.88,62.86z M81.11,64.85c0-2.94-2.39-5.33-5.33-5.33s-5.33,2.39-5.33,5.33c0,2.94,2.39,5.33,5.33,5.33   S81.11,67.79,81.11,64.85z M33.27,58.58c0.29,0.73,0.28,1.53-0.03,2.26s-0.89,1.28-1.62,1.57l-4.05,2.12   c-0.07,0.04-0.15,0.06-0.23,0.06c-0.18,0-0.35-0.1-0.44-0.27c-0.13-0.25-0.03-0.55,0.21-0.67l4.09-2.14   c0.53-0.21,0.91-0.58,1.11-1.06c0.21-0.48,0.21-1.01,0.02-1.49c-0.19-0.48-0.56-0.86-1.04-1.07c-0.48-0.21-1.01-0.21-1.49-0.02   l-6.56,3.18c1.54,0.62,2.63,2.13,2.63,3.89v2.81c0,0.77-0.63,1.4-1.4,1.4H6c-0.23,0-0.44-0.16-0.49-0.39s0.06-0.46,0.27-0.56   l5.93-2.8v-2.42c0-0.28,0.22-0.5,0.5-0.5s0.5,0.22,0.5,0.5v1.95l2.94-1.39L13.7,62.4c-0.24-0.14-0.32-0.44-0.18-0.68   c0.14-0.24,0.44-0.32,0.68-0.18l2.34,1.35c0.07,0.04,0.12,0.09,0.16,0.15l1.52-0.72c0-0.04-0.01-0.08,0-0.12   c0.08-0.4,0.12-0.82,0.12-1.24c0-3.38-2.75-6.13-6.13-6.13s-6.13,2.75-6.13,6.13c0,1.46,0.52,2.88,1.47,3.99   c0.18,0.21,0.16,0.53-0.05,0.71c-0.09,0.08-0.21,0.12-0.33,0.12c-0.14,0-0.28-0.06-0.38-0.17c-1.11-1.29-1.71-2.94-1.71-4.64   c0-3.93,3.2-7.13,7.13-7.13s7.13,3.2,7.13,7.13c0,0.28-0.02,0.57-0.06,0.85l2.17-1.03c0.02-0.01,0.04-0.01,0.06-0.01l7.88-3.82   c0.76-0.31,1.57-0.3,2.29,0.01C32.42,57.28,32.98,57.85,33.27,58.58z M21.79,61.74l-13.56,6.4h16.26c0.22,0,0.4-0.18,0.4-0.4v-2.81   C24.88,63.21,23.5,61.8,21.79,61.74z" style="display: inline;"></path></g></g><g id="SvgjsG1753" featurekey="jxYttZ-0" transform="matrix(1.5460294819528635,0,0,1.5460294819528635,138.45397051804713,36.806746904519336)" fill="#ffffff"><path d="M1.24 20 c-0.14 0 -0.24 -0.12 -0.24 -0.26 l0 -11.98 c0 -0.14 0.1 -0.26 0.24 -0.26 l4.9 0 c1.52 0 2.72 0.38 3.56 1.16 c1.24 1.12 1.66 3.24 1.06 4.8 c-0.22 0.56 -0.6 1.08 -1.08 1.46 c-1.62 1.26 -3.64 1.14 -5.58 1.14 l0 3.68 c0 0.14 -0.12 0.26 -0.26 0.26 l-2.6 0 z M4.1 13.280000000000001 c0 0 2.52 0.28 3.4 -0.3 c0.34 -0.22 0.54 -0.76 0.54 -1.16 c-0.02 -0.44 -0.24 -0.9 -0.6 -1.18 c-0.38 -0.32 -1.32 -0.42 -1.8 -0.42 l-1.54 0.04 l0 3.02 z M13.32 20 c-0.16 0 -0.26 -0.12 -0.26 -0.26 l0 -11.98 c0 -0.14 0.1 -0.26 0.26 -0.26 l4.88 0 c1.52 0 2.72 0.38 3.56 1.16 c1.24 1.12 1.66 3.24 1.06 4.8 c-0.22 0.56 -0.6 1.08 -1.08 1.46 c-0.28 0.22 -0.58 0.38 -0.88 0.54 c0.86 1.36 2.16 4.12 2.16 4.12 c0.02 0.04 0.06 0.1 0.06 0.16 c0 0.14 -0.12 0.26 -0.26 0.26 l-2.96 0 c-0.08 0 -0.18 -0.06 -0.22 -0.14 l-1.74 -3.82 c-0.62 0.04 -1.1 0.02 -1.74 0.02 l0 3.68 c0 0.14 -0.12 0.26 -0.26 0.26 l-2.58 0 z M16.16 13.280000000000001 c0 0 2.52 0.28 3.4 -0.3 c0.34 -0.22 0.54 -0.76 0.54 -1.16 c-0.02 -0.44 -0.24 -0.9 -0.6 -1.18 c-0.38 -0.32 -1.32 -0.42 -1.8 -0.42 l-1.54 0.04 l0 3.02 z M25.360000000000003 20 c-0.14 0 -0.26 -0.12 -0.26 -0.26 l0 -11.98 c0 -0.14 0.12 -0.26 0.26 -0.26 l2.6 0 c0.14 0 0.26 0.12 0.26 0.26 l0 11.98 c0 0.14 -0.12 0.26 -0.26 0.26 l-2.6 0 z M30.480000000000004 20 c-0.14 0 -0.26 -0.12 -0.26 -0.26 l0 -11.98 c0 -0.14 0.12 -0.26 0.26 -0.26 l2.88 0 c0.1 0 0.2 0.06 0.24 0.14 l3 7.4 l2.98 -7.4 c0.04 -0.08 0.14 -0.14 0.24 -0.14 l2.88 0 c0.14 0 0.26 0.12 0.26 0.26 l0 11.98 c0 0.14 -0.12 0.26 -0.26 0.26 l-2.34 0 c-0.14 0 -0.26 -0.12 -0.26 -0.26 l0 -6.44 l-2.44 6.2 c-0.04 0.08 -0.14 0.14 -0.22 0.14 l-1.68 0 c-0.1 0 -0.2 -0.06 -0.24 -0.14 l-2.46 -6.2 l0 6.44 c0 0.14 -0.12 0.26 -0.26 0.26 l-2.32 0 z M44.96 20 l0 -11.98 c0 -0.5 0.1 -0.6 0.26 -0.6 l8.76 0 c0.14 0 0.26 0.1 0.26 0.24 l0 2.26 c0 0.14 -0.12 0.26 -0.26 0.26 l-5.92 0 l0 2.08 l3.74 0 c0.14 0 0.26 0.12 0.26 0.26 l0 2.24 c0 0.14 -0.12 0.26 -0.26 0.26 l-3.74 0 l0 2.14 l5.9 0 c0.14 0 0.26 0.12 0.26 0.26 l0 2.24 c0 0.14 -0.12 0.26 -0.26 0.26 l-8.74 0 c-0.16 0 -0.26 -0.12 -0.26 0.08 z M61.64 20 l0 -11.98 c0 -0.5 0.1 -0.6 0.26 -0.6 l8.76 0 c0.14 0 0.26 0.1 0.26 0.24 l0 2.26 c0 0.14 -0.12 0.26 -0.26 0.26 l-5.92 0 l0 2.08 l3.74 0 c0.14 0 0.26 0.12 0.26 0.26 l0 2.24 c0 0.14 -0.12 0.26 -0.26 0.26 l-3.74 0 l0 2.14 l5.9 0 c0.14 0 0.26 0.12 0.26 0.26 l0 2.24 c0 0.14 -0.12 0.26 -0.26 0.26 l-8.74 0 c-0.16 0 -0.26 -0.12 -0.26 0.08 z M73.16 20 c-0.1 0 -0.18 -0.06 -0.22 -0.14 s-0.04 -0.18 0 -0.26 l3.36 -5.98 l-3.08 -5.72 c-0.04 -0.08 -0.04 -0.18 0 -0.26 s0.12 -0.14 0.22 -0.14 l2.82 0 c0.1 0 0.18 0.04 0.22 0.12 l1.68 3.16 l1.68 -3.16 c0.04 -0.08 0.12 -0.12 0.22 -0.12 l2.88 0 c0.08 0 0.18 0.06 0.22 0.14 s0.04 0.18 -0.02 0.26 l-3.04 5.6 l3.38 6.1 c0.04 0.08 0.06 0.18 0 0.26 c-0.04 0.08 -0.12 0.14 -0.22 0.14 l-2.9 0 c-0.1 0 -0.18 -0.04 -0.22 -0.12 l-1.98 -3.5 l-1.94 3.5 c-0.06 0.08 -0.14 0.12 -0.22 0.12 l-2.84 0 z M85.96 20 c-0.14 0 -0.24 -0.12 -0.24 -0.26 l0 -11.98 c0 -0.14 0.1 -0.26 0.24 -0.26 l4.9 0 c1.52 0 2.72 0.38 3.56 1.16 c1.24 1.12 1.66 3.24 1.06 4.8 c-0.22 0.56 -0.6 1.08 -1.08 1.46 c-1.62 1.26 -3.64 1.14 -5.58 1.14 l0 3.68 c0 0.14 -0.12 0.26 -0.26 0.26 l-2.6 0 z M88.82 13.280000000000001 c0 0 2.52 0.28 3.4 -0.3 c0.34 -0.22 0.54 -0.76 0.54 -1.16 c-0.02 -0.44 -0.24 -0.9 -0.6 -1.18 c-0.38 -0.32 -1.32 -0.42 -1.8 -0.42 l-1.54 0.04 l0 3.02 z M98.04 20 c-0.16 0 -0.26 -0.12 -0.26 -0.26 l0 -11.98 c0 -0.14 0.1 -0.26 0.26 -0.26 l4.88 0 c1.52 0 2.72 0.38 3.56 1.16 c1.24 1.12 1.66 3.24 1.06 4.8 c-0.22 0.56 -0.6 1.08 -1.08 1.46 c-0.28 0.22 -0.58 0.38 -0.88 0.54 c0.86 1.36 2.16 4.12 2.16 4.12 c0.02 0.04 0.06 0.1 0.06 0.16 c0 0.14 -0.12 0.26 -0.26 0.26 l-2.96 0 c-0.08 0 -0.18 -0.06 -0.22 -0.14 l-1.74 -3.82 c-0.62 0.04 -1.1 0.02 -1.74 0.02 l0 3.68 c0 0.14 -0.12 0.26 -0.26 0.26 l-2.58 0 z M100.88 13.280000000000001 c0 0 2.52 0.28 3.4 -0.3 c0.34 -0.22 0.54 -0.76 0.54 -1.16 c-0.02 -0.44 -0.24 -0.9 -0.6 -1.18 c-0.38 -0.32 -1.32 -0.42 -1.8 -0.42 l-1.54 0.04 l0 3.02 z M109.82000000000001 20 l0 -11.98 c0 -0.5 0.1 -0.6 0.26 -0.6 l8.76 0 c0.14 0 0.26 0.1 0.26 0.24 l0 2.26 c0 0.14 -0.12 0.26 -0.26 0.26 l-5.92 0 l0 2.08 l3.74 0 c0.14 0 0.26 0.12 0.26 0.26 l0 2.24 c0 0.14 -0.12 0.26 -0.26 0.26 l-3.74 0 l0 2.14 l5.9 0 c0.14 0 0.26 0.12 0.26 0.26 l0 2.24 c0 0.14 -0.12 0.26 -0.26 0.26 l-8.74 0 c-0.16 0 -0.26 -0.12 -0.26 0.08 z M126.44000000000001 20.12 c-0.96 0 -1.92 -0.18 -2.84 -0.54 c-0.92 -0.34 -1.74 -0.84 -2.42 -1.44 c-0.08 -0.08 -0.1 -0.2 -0.06 -0.3 l0.7 -2.38 c0.04 -0.08 0.1 -0.14 0.18 -0.14 c0.08 -0.02 0.16 0 0.22 0.06 c1.06 1 2.26 1.9 3.76 1.98 c0.4 0.02 0.84 0.04 1.22 -0.08 c1.18 -0.38 0.68 -1.58 -0.2 -1.94 c-0.3 -0.12 -0.72 -0.26 -1.26 -0.42 c-0.8 -0.22 -1.46 -0.46 -1.96 -0.7 c-0.54 -0.24 -1 -0.62 -1.4 -1.12 c-0.38 -0.52 -0.58 -1.2 -0.58 -2.02 c0 -0.78 0.2 -1.46 0.6 -2.04 s0.96 -1.04 1.66 -1.34 s1.52 -0.46 2.44 -0.46 c0.82 0 1.62 0.12 2.42 0.38 c0.78 0.24 1.48 0.58 2.1 0.98 c0.1 0.08 0.14 0.2 0.08 0.32 l-0.66 2.24 c-0.02 0.08 -0.08 0.12 -0.16 0.14 c-0.06 0.02 -0.14 0.02 -0.2 -0.02 c-0.9 -0.56 -1.8 -1.24 -2.86 -1.38 c-0.7 -0.1 -1.76 -0.06 -2 0.78 c-0.3 1.08 1.28 1.36 2 1.58 c0.8 0.24 1.46 0.48 1.98 0.72 c0.54 0.26 1.02 0.66 1.4 1.16 c0.4 0.52 0.6 1.22 0.6 2.06 c0 0.82 -0.22 1.52 -0.64 2.12 c-0.4 0.6 -0.98 1.04 -1.7 1.36 c-0.72 0.28 -1.52 0.44 -2.42 0.44 z M138.54000000000002 20.12 c-0.96 0 -1.92 -0.18 -2.84 -0.54 c-0.92 -0.34 -1.74 -0.84 -2.42 -1.44 c-0.08 -0.08 -0.1 -0.2 -0.06 -0.3 l0.7 -2.38 c0.04 -0.08 0.1 -0.14 0.18 -0.14 c0.08 -0.02 0.16 0 0.22 0.06 c1.06 1 2.26 1.9 3.76 1.98 c0.4 0.02 0.84 0.04 1.22 -0.08 c1.18 -0.38 0.68 -1.58 -0.2 -1.94 c-0.3 -0.12 -0.72 -0.26 -1.26 -0.42 c-0.8 -0.22 -1.46 -0.46 -1.96 -0.7 c-0.54 -0.24 -1 -0.62 -1.4 -1.12 c-0.38 -0.52 -0.58 -1.2 -0.58 -2.02 c0 -0.78 0.2 -1.46 0.6 -2.04 s0.96 -1.04 1.66 -1.34 s1.52 -0.46 2.44 -0.46 c0.82 0 1.62 0.12 2.42 0.38 c0.78 0.24 1.48 0.58 2.1 0.98 c0.1 0.08 0.14 0.2 0.08 0.32 l-0.66 2.24 c-0.02 0.08 -0.08 0.12 -0.16 0.14 c-0.06 0.02 -0.14 0.02 -0.2 -0.02 c-0.9 -0.56 -1.8 -1.24 -2.86 -1.38 c-0.7 -0.1 -1.76 -0.06 -2 0.78 c-0.3 1.08 1.28 1.36 2 1.58 c0.8 0.24 1.46 0.48 1.98 0.72 c0.54 0.26 1.02 0.66 1.4 1.16 c0.4 0.52 0.6 1.22 0.6 2.06 c0 0.82 -0.22 1.52 -0.64 2.12 c-0.4 0.6 -0.98 1.04 -1.7 1.36 c-0.72 0.28 -1.52 0.44 -2.42 0.44 z"></path></g></svg>